<svg width="110" height="110" viewBox="0 0 110 110" fill="none" xmlns="http://www.w3.org/2000/svg">
<rect width="110" height="110" rx="30" fill="white"/>
<path d="M74.1502 82.1963C70.3396 85.8902 66.179 85.307 62.1739 83.5572C57.9356 81.7685 54.0472 81.6908 49.5755 83.5572C43.9762 85.968 41.021 85.2681 37.677 82.1963C18.7016 62.6376 21.5013 32.8525 43.043 31.7637C48.2924 32.0359 51.9474 34.6411 55.0193 34.8744C59.6076 33.9412 64.0015 31.2582 68.9009 31.6082C74.7723 32.0748 79.2051 34.4078 82.1214 38.6073C69.9896 45.8786 72.867 61.8599 83.9878 66.3316C81.7715 72.1642 78.894 77.9579 74.1113 82.2351L74.1502 82.1963ZM54.6304 31.5304C54.0472 22.8593 61.0852 15.7046 69.173 15.0047C70.3007 25.0368 60.0742 32.5025 54.6304 31.5304Z" fill="#4C4C4C"/>
</svg>
