<svg width="110" height="110" viewBox="0 0 110 110" fill="none" xmlns="http://www.w3.org/2000/svg">
<rect width="110" height="110" rx="30" fill="#E30A5D"/>
<path d="M64.1783 27.0487C64.6939 26.9976 65.2485 27.0536 65.769 27.0584L68.7121 27.0609C72.7983 27.0633 76.9162 27.1656 81 27L80.9976 48.7426V55.1996C80.9976 57.0111 81.0292 58.8177 80.8395 60.6219C80.6284 62.6665 80.15 64.6745 79.4166 66.5944C77.8806 70.6644 75.1556 74.177 71.5968 76.6744C70.8938 77.1638 70.1325 77.7019 69.3469 78.0476C67.3732 79.1263 65.2597 79.926 63.0667 80.424C62.1886 80.6261 61.296 80.743 60.4204 80.9499C59.4937 80.1927 58.6569 79.2602 57.8129 78.4104L53.2086 73.8014C51.4525 72.0581 49.6696 70.3513 47.9281 68.591C47.1911 67.8508 46.3739 67.1203 45.722 66.3071C45.9798 67.9969 45.8363 70.568 45.8363 72.36C45.8534 75.9075 45.8436 79.4525 45.8047 83C45.7665 82.9728 45.7292 82.9444 45.6928 82.9148C45.1188 82.4643 44.6056 81.8727 44.0875 81.3517C43.0903 80.3412 42.0857 79.3381 41.0739 78.3398L33.7989 71.0866C32.4855 69.7718 31.1283 68.4814 29.8489 67.135C29.6786 66.9548 29.3259 66.6236 29.2943 66.3777C29.3981 66.359 29.5046 66.3598 29.6081 66.3802L29.5959 66.351C31.7096 66.2292 33.8767 66.3193 35.9928 66.3193C39.2327 66.3193 42.4749 66.2755 45.7123 66.3217C40.123 60.8421 34.578 55.3174 29.0778 49.7482C28.9635 48.879 29.0292 47.9464 29.0292 47.0675L29.0316 42.4049L29 27.4334C29 27.336 29.0243 27.2508 29.0681 27.1607C29.2116 27.0633 29.3211 27.0682 29.4938 27.0584C30.7585 26.9854 32.072 27.0584 33.3416 27.0609C37.0193 27.0609 40.7261 27.1631 44.3988 27.0463C44.878 27.0122 45.3645 27.0195 45.8436 27.0097L45.8363 52.7722C45.8582 57.2984 45.8436 61.8223 45.7926 66.3461C46.8287 66.239 47.9573 66.3217 49.0032 66.3217H55.7455C58.0902 66.3047 60.2623 65.8591 61.9673 64.1207C63.2759 62.7864 63.8256 61.0626 64.1077 59.2511C64.3023 58.0094 64.2099 56.6216 64.2074 55.3628L64.2026 48.9228C64.2001 41.633 64.2658 34.3384 64.1783 27.0487Z" fill="white"/>
</svg>
