<svg width="110" height="110" viewBox="0 0 110 110" fill="none" xmlns="http://www.w3.org/2000/svg">
<rect width="110" height="110" rx="30" fill="white"/>
<path d="M96.8435 47.5349C88.1453 41.4605 83.2136 38.1979 74.8726 33C50.7229 42.6264 37.0319 48.8267 13.398 60.7885C13.1356 58.8963 13 56.9639 13 55C13 31.804 31.918 13 55.2545 13C76.0278 13 93.3 27.9002 96.8435 47.5349Z" fill="#EE0000"/>
<path d="M97 61.538C60.9201 64.2391 44.2967 67.0279 16.9707 72.7986C23.7104 87.0968 38.3189 97 55.2545 97C76.3535 97 93.8407 81.6288 97 61.538Z" fill="#EE0000"/>
<path d="M44.3153 53.81H49.7473C50.4106 53.81 50.9279 53.6567 51.2993 53.35C51.6707 53.0433 51.8564 52.6167 51.8564 52.07C51.8564 51.51 51.6707 51.0833 51.2993 50.79C50.9279 50.4833 50.4106 50.33 49.7473 50.33H43.7383L45.5887 48.35V62.25H41.47V47.25H50.3243C51.4651 47.25 52.46 47.4567 53.309 47.87C54.1579 48.27 54.8212 48.83 55.2987 49.55C55.7763 50.2567 56.015 51.0967 56.015 52.07C56.015 53.0167 55.7763 53.85 55.2987 54.57C54.8212 55.29 54.1579 55.85 53.309 56.25C52.46 56.65 51.4651 56.85 50.3243 56.85H44.3153V53.81ZM46.5438 55.23H51.1799L56.5324 62.25H51.757L46.5438 55.23Z" fill="#EE0000"/>
<path d="M62.6235 49.07H66.7621V62.25H62.6235V49.07ZM56.9328 47.25H72.4528V50.93H56.9328V47.25Z" fill="#EE0000"/>
<path d="M74.7458 59.37V56.03H85.0328V59.37H74.7458ZM82.6849 47.25L89.47 62.25H85.0726L79.382 49.01H80.5758L74.8652 62.25H70.4679L77.2529 47.25H82.6849Z" fill="#EE0000"/>
</svg>
