<svg width="110" height="110" viewBox="0 0 110 110" fill="none" xmlns="http://www.w3.org/2000/svg">
<rect width="110" height="110" rx="30" fill="#EE3424"/>
<path d="M30.7869 81.1103C30.3632 81.1103 30 81.4553 30 81.8578V90.2525C30 90.655 30.3632 91 30.7869 91H79.2131C79.6368 91 80 90.655 80 90.2525V81.8578C80 81.4553 79.6368 81.1103 79.2131 81.1103H30.7869ZM78.184 62.6535C77.7603 61.561 63.9588 25.7397 63.3535 24.1873C62.0218 20.6224 60.3269 17 55 17C49.6731 17 47.9782 20.6799 46.6465 24.1873C45.9806 26.0272 32.4213 61.2735 31.8765 62.6535C31.7554 63.056 31.937 63.4584 32.3002 63.6309L40.3511 66.5633C40.7748 66.6783 41.1985 66.5058 41.3196 66.1033C41.4407 65.7584 44.4673 57.9386 44.77 57.0762H65.1695C65.5327 57.9386 68.4988 65.7584 68.6199 66.1033C68.7409 66.5058 69.2252 66.6783 69.5884 66.5633C70.0121 66.4483 77.155 63.8034 77.6392 63.6309C78.1235 63.4584 78.3051 62.9985 78.184 62.6535ZM48.0993 48.3939L55 28.7296H55.0605L61.9613 48.3939H48.0993Z" fill="white"/>
</svg>
