<svg width="110" height="110" viewBox="0 0 110 110" fill="none" xmlns="http://www.w3.org/2000/svg">
<rect width="110" height="110" rx="30" fill="white"/>
<path d="M44.8942 64.3448L64.2419 29.0151C64.5079 28.5285 64.7739 28.0484 65.0146 27.5458C65.2331 27.0913 65.4167 26.6335 65.5371 26.1373C65.7904 25.0938 65.7207 24.0055 65.3281 23.0099C64.9468 22.0292 64.2569 21.2024 63.3648 20.6572C62.4895 20.1214 61.4596 19.9035 60.4452 20.0394C59.4319 20.177 58.5041 20.6604 57.7726 21.4158C57.4243 21.7679 57.1393 22.1681 56.8765 22.5938C56.5852 23.0612 56.3224 23.5477 56.0564 24.0343L54.8341 26.2654L53.6086 24.0311C53.3426 23.5477 53.0798 23.0612 52.7885 22.5938C52.5319 22.1692 52.2315 21.7733 51.8923 21.4126C51.1786 20.6655 50.2375 20.182 49.2197 20.0394C48.2064 19.9043 47.1778 20.1222 46.3033 20.6572C45.4112 21.2024 44.7214 22.0292 44.3401 23.0099C43.9488 24.0047 43.8757 25.0984 44.1311 26.1373C44.2514 26.6335 44.4351 27.0913 44.6504 27.5458C44.8911 28.0484 45.157 28.5285 45.423 29.0151L49.3749 36.2302L33.9791 64.3416H23.428C22.8961 64.3416 22.3641 64.3416 21.8353 64.3736C21.3539 64.4024 20.8853 64.4632 20.4166 64.6009C19.435 64.889 18.5737 65.4971 17.9531 66.355C17.3326 67.2183 16.9981 68.2579 16.9976 69.3251C16.997 70.3922 17.3303 71.4321 17.9499 72.2961C18.5737 73.154 19.4318 73.759 20.4166 74.0503C20.8853 74.1879 21.3539 74.2487 21.8353 74.2776C22.3641 74.3096 22.8961 74.3096 23.428 74.3096H64.9006C65.0265 74.0295 65.1324 73.7407 65.2173 73.4453C66.5314 68.9126 63.2666 64.3416 58.7733 64.3416L44.8942 64.3448ZM26.8574 75.9389L24.3495 80.7404C24.0899 81.2398 23.827 81.7327 23.5927 82.2481C23.3765 82.7121 23.2067 83.1968 23.0861 83.695C22.832 84.7614 22.9026 85.8805 23.2887 86.9056C23.6719 87.9235 24.3464 88.7718 25.2108 89.3224C26.0753 89.8729 27.0759 90.097 28.0639 89.953C29.0582 89.8121 29.9638 89.3192 30.6795 88.5445C31.0215 88.1764 31.3001 87.7699 31.5598 87.3345C31.8448 86.8544 32.1013 86.355 32.3609 85.8557L35.9993 78.8902C35.7143 78.4101 33.0006 74.1847 26.8574 75.9389ZM92.0444 66.3166C91.4335 65.4809 90.5662 64.8731 89.5777 64.5881C89.1148 64.4582 88.6389 64.3819 88.159 64.3608C87.627 64.3288 87.0982 64.3288 86.5662 64.3288H76.0501L62.1488 39.3128C60.3243 41.248 59.1345 43.7049 58.7416 46.3486C58.2313 49.6551 58.8405 53.039 60.4706 55.9517L77.171 86.0189C77.437 86.4991 77.6999 86.9792 77.9912 87.4402C78.2572 87.8563 78.5422 88.25 78.8873 88.6053C79.6188 89.348 80.5466 89.8217 81.5631 89.9594C82.5795 90.097 83.5992 89.8826 84.4827 89.3512C85.3712 88.8139 86.0617 87.9978 86.4491 87.0272C86.8449 86.0445 86.9114 84.9722 86.6581 83.9414C86.5329 83.461 86.3577 82.9954 86.1356 82.5522C85.8981 82.056 85.6289 81.5823 85.363 81.1021L81.5124 74.1687H86.5662C87.0982 74.1687 87.627 74.1687 88.159 74.1399C88.6404 74.1111 89.109 74.0503 89.5777 73.9158C90.5678 73.6306 91.4364 73.0216 92.0476 72.1841C92.6665 71.3346 92.9994 70.3069 92.9975 69.2519C92.9994 68.197 92.6665 67.1693 92.0476 66.3198" fill="#2F80ED"/>
</svg>
