<svg width="110" height="110" viewBox="0 0 110 110" fill="none" xmlns="http://www.w3.org/2000/svg">
<rect width="110" height="110" rx="30" fill="white"/>
<path d="M34.1253 64.4976C34.1253 68.6617 30.7293 72.0628 26.5646 72.0628C22.4 72.0628 19 68.6617 19 64.4976C19 60.3335 22.4011 56.9323 26.5652 56.9323H34.1258L34.1253 64.4976ZM37.9365 64.4976C37.9365 60.3335 41.3377 56.9323 45.5017 56.9323C49.6658 56.9323 53.0669 60.3329 53.0669 64.4976V83.4348C53.0669 87.5989 49.6664 91 45.5017 91C41.3377 91 37.9365 87.5989 37.9365 83.4348V64.4976Z" fill="#DE1C59"/>
<path d="M45.5017 34.1253C41.3377 34.1253 37.9365 30.7293 37.9365 26.5647C37.9365 22.4 41.3377 19 45.5017 19C49.6658 19 53.0669 22.4011 53.0669 26.5652V34.1259L45.5017 34.1253ZM45.5017 37.9366C49.6658 37.9366 53.0669 41.3378 53.0669 45.5019C53.0669 49.6659 49.6664 53.0671 45.5017 53.0671H26.5646C22.4006 53.0671 19 49.6665 19 45.5019C19 41.3378 22.4011 37.9366 26.5652 37.9366H45.5017Z" fill="#35C5F0"/>
<path d="M75.8742 45.5019C75.8742 41.3378 79.2702 37.9366 83.4348 37.9366C87.5994 37.9366 91 41.3378 91 45.5019C91 49.6659 87.5989 53.0671 83.4348 53.0671H75.8742V45.5019ZM72.0629 45.5019C72.0629 49.6659 68.6618 53.0671 64.4977 53.0671C60.3336 53.0671 56.9325 49.6665 56.9325 45.5019V26.5647C56.9325 22.4006 60.3331 19 64.4977 19C68.6618 19 72.0629 22.4011 72.0629 26.5652V45.5019Z" fill="#2EB57D"/>
<path d="M64.4977 75.8741C68.6618 75.8741 72.0629 79.2701 72.0629 83.4348C72.0629 87.5994 68.6618 91 64.4977 91C60.3336 91 56.9325 87.5989 56.9325 83.4348V75.8741H64.4977ZM64.4977 72.0628C60.3336 72.0628 56.9325 68.6617 56.9325 64.4976C56.9325 60.3335 60.3331 56.9323 64.4977 56.9323H83.4348C87.5989 56.9323 91 60.3329 91 64.4976C91 68.6617 87.5989 72.0628 83.4348 72.0628H64.4977Z" fill="#EBB02E"/>
</svg>
