<svg width="110" height="110" viewBox="0 0 110 110" fill="none" xmlns="http://www.w3.org/2000/svg">
<rect width="110" height="110" rx="30" fill="#FFA000"/>
<path fill-rule="evenodd" clip-rule="evenodd" d="M88.9631 37.3442C89.2455 35.5887 87.8701 34 86.0679 34H41.0013C38.4685 34 36.4153 36.0251 36.4153 38.5231V39.3177C36.4153 41.3769 38.1078 43.0462 40.1956 43.0462H40.939C42.6163 43.0462 43.976 44.3872 43.976 46.0415C43.976 47.6904 42.6247 49.0292 40.9529 49.0368L30.5727 49.0837C28.1102 49.0948 26.1198 51.0669 26.1198 53.4957C26.1198 55.9324 28.1226 57.9077 30.5932 57.9077H36.4125C38.9905 57.9077 41.0804 59.9689 41.0804 62.5115C41.0804 65.0542 38.9905 67.1154 36.4125 67.1154H33.5195C31.032 67.1154 29.0154 69.1043 29.0154 71.5577C29.0154 74.0111 31.032 76 33.5195 76H80.2417C81.6834 76 82.911 74.9662 83.1369 73.5619L88.9631 37.3442ZM77.597 70.0231H46.8716L51.6975 39.9769H82.5838L77.597 70.0231Z" fill="white"/>
<path d="M73.5753 65.6615H52.1801L55.7192 44.5H77.1144L73.5753 65.6615Z" fill="white"/>
<path d="M25.7941 71.0555C25.7941 73.4506 23.8255 75.3922 21.3971 75.3922C18.9686 75.3922 17 73.4506 17 71.0555C17 68.6604 18.9686 66.7188 21.3971 66.7188C23.8255 66.7188 25.7941 68.6604 25.7941 71.0555Z" fill="white"/>
</svg>
