<svg width="110" height="110" viewBox="0 0 110 110" fill="none" xmlns="http://www.w3.org/2000/svg">
<rect width="110" height="110" rx="30" fill="#0C3B7C"/>
<path d="M77 77C77 73.1291 80.115 70 83.9797 70C87.8443 70 91 73.1291 91 77C91 80.8709 87.8618 84 83.9797 84C80.0975 84 77 80.8709 77 77Z" fill="#4D9ED7"/>
<path d="M55.3067 74.2434H45.7744V62.5946C45.7744 60.1105 46.7117 58.7755 48.8022 58.5086H55.3464C59.2548 58.1777 62.6859 61.1494 63.0097 65.1426C63.0438 65.5489 63.0438 65.9552 63.0097 66.3615C63.0097 71.3239 60.0728 74.284 55.3464 74.284L55.3067 74.2434ZM45.7574 42.7505V39.6976C45.7574 37.0219 46.8765 35.7276 49.3078 35.5709H54.2046C58.3913 35.5709 60.9363 38.1305 60.9363 42.4487C60.9363 45.6932 59.215 49.5123 54.3921 49.5123H45.7914L45.7574 42.7505ZM67.5146 54.3993L65.7933 53.4068L67.2873 52.0719C69.0427 50.5454 71.9626 47.0687 71.9626 41.0906C71.9626 31.9201 65.0094 26 54.2614 26H40.6163C37.4124 26.1161 34.8674 28.786 34.839 32.0536V84H54.5C66.4636 84 74.161 77.3543 74.161 67.0405C74.161 61.5035 71.6729 56.7267 67.4691 54.3412" fill="white"/>
</svg>
