<svg width="110" height="110" viewBox="0 0 110 110" fill="none" xmlns="http://www.w3.org/2000/svg">
<rect width="110" height="110" rx="30" fill="white"/>
<path d="M43.5557 89.8119C46.7046 91.0874 50.1226 91.8472 53.7291 91.9829C58.6005 92.1457 63.2028 91.1416 67.3475 89.2149C62.3954 87.2611 57.9007 84.3846 54.079 80.8025C51.5821 84.8224 47.9169 87.9684 43.5826 89.8119H43.5557Z" fill="#FF9100"/>
<path d="M54.0521 80.8025C45.3051 72.6615 40.0031 60.857 40.4606 47.9128C40.4606 47.5058 40.4875 47.0716 40.5144 46.6645C36.6322 45.6658 32.5579 45.7126 28.6993 46.8002C26.3578 50.925 24.9582 55.6468 24.7698 60.7214C24.3123 73.8013 32.1711 85.2258 43.5557 89.8391C47.9022 88.0156 51.5729 84.8649 54.0521 80.8297V80.8025Z" fill="#FFC400"/>
<path d="M54.0521 80.8025C56.1502 77.4153 57.3284 73.5317 57.4697 69.5407C57.8465 58.6318 50.5797 49.2696 40.5139 46.6373C40.5139 47.0444 40.4601 47.4786 40.4601 47.8856C40.235 54.0323 41.3333 60.1552 43.6796 65.8329C46.0259 71.5106 49.5644 76.6084 54.0516 80.7754L54.0521 80.8025Z" fill="#FF9100"/>
<path d="M56.3395 16C50.6068 20.6132 46.0853 26.719 43.3401 33.7474C41.7354 37.8686 40.7816 42.2181 40.5139 46.6373C45.5042 47.9379 49.9049 50.9169 52.988 55.0816C56.0712 59.2462 57.6521 64.3471 57.4697 69.5407C57.345 73.5345 56.1655 77.4224 54.0521 80.8025C57.9198 84.4114 62.4187 87.264 67.3203 89.2149C77.2785 84.5745 84.3299 74.6154 84.7336 62.8109C85.0027 55.1583 82.096 48.347 77.9782 42.594C73.6182 36.5154 56.3395 16.0271 56.3395 16.0271V16Z" fill="#DD2C00"/>
</svg>
