<svg width="110" height="110" viewBox="0 0 110 110" fill="none" xmlns="http://www.w3.org/2000/svg">
<rect width="110" height="110" rx="30" fill="white"/>
<path d="M25.9929 62.1438C25.9929 65.002 26.6132 67.1964 27.4237 68.5239C28.4866 70.2628 30.0715 70.9993 31.6877 70.9993C33.7721 70.9993 35.6791 70.4759 39.3536 65.335C42.2977 61.2145 45.7668 55.4303 48.1007 51.8043L52.0536 45.661C54.7994 41.3947 57.9773 36.652 61.6216 33.437C64.5957 30.8131 67.8049 29.3555 71.0343 29.3555C76.4565 29.3555 81.6212 32.5338 85.5741 38.4949C89.9 45.0233 92 53.2464 92 61.7324C92 66.7771 91.0172 70.4838 89.3444 73.4125C87.7282 76.2447 84.5783 79.0742 79.2798 79.0742V70.9993C83.8166 70.9993 84.9489 66.7824 84.9489 61.9563C84.9489 55.0792 83.3637 47.4467 79.8718 41.9935C77.3934 38.1251 74.1819 35.7616 70.6487 35.7616C66.8273 35.7616 63.7519 38.6768 60.2959 43.8756C58.4586 46.6373 56.5722 50.0031 54.4545 53.8008L52.123 57.9789C47.4393 66.3789 46.253 68.292 43.9113 71.4496C39.8066 76.9789 36.302 79.0742 31.6877 79.0742C26.2143 79.0742 22.7528 76.6765 20.6094 73.0637C18.8594 70.1195 18 66.2566 18 61.8549L25.9929 62.1438Z" fill="#0081FB"/>
<path d="M24.3021 39.0648C27.9669 33.3514 33.255 29.3555 39.3204 29.3555C42.8334 29.3555 46.3252 30.4072 49.9718 33.4189C53.9602 36.7116 58.2115 42.1338 63.5152 51.0704L65.4172 54.2771C70.0078 62.0137 72.6198 65.9935 74.1484 67.8707C76.1146 70.2809 77.4914 70.9993 79.2798 70.9993C83.8166 70.9993 84.9489 66.7824 84.9489 61.9563L92 61.7324C92 66.7771 91.0172 70.4838 89.3444 73.4125C87.7282 76.2447 84.5783 79.0742 79.2798 79.0742C75.9859 79.0742 73.0679 78.3505 69.8408 75.271C67.36 72.9075 64.4599 68.7087 62.2286 64.9341L55.5917 53.7201C52.262 48.0923 49.2072 43.8964 47.4396 41.9958C45.5381 39.9525 43.0932 37.4847 39.192 37.4847C36.0346 37.4847 33.353 39.7262 31.109 43.1543L24.3021 39.0648Z" fill="url(#paint0_linear_1_336)"/>
<path d="M39.192 37.4847C36.0346 37.4847 33.353 39.7262 31.109 43.1543C27.9362 47.9987 25.9929 55.2142 25.9929 62.1438C25.9929 65.002 26.6132 67.1964 27.4237 68.5239L20.6094 73.0637C18.8594 70.1195 18 66.2566 18 61.8549C18 53.8502 20.172 45.5075 24.3021 39.0648C27.9669 33.3514 33.255 29.3555 39.3204 29.3555L39.192 37.4847Z" fill="url(#paint1_linear_1_336)"/>
<defs>
<linearGradient id="paint0_linear_1_336" x1="1044.97" y1="2810.32" x2="6605.58" y2="3113.81" gradientUnits="userSpaceOnUse">
<stop stop-color="#0064E1"/>
<stop offset="0.4" stop-color="#0064E1"/>
<stop offset="0.83" stop-color="#0073EE"/>
<stop offset="1" stop-color="#0082FB"/>
</linearGradient>
<linearGradient id="paint1_linear_1_336" x1="1176.02" y1="3647.61" x2="1176.02" y2="1747.39" gradientUnits="userSpaceOnUse">
<stop stop-color="#0082FB"/>
<stop offset="1" stop-color="#0064E0"/>
</linearGradient>
</defs>
</svg>
