<svg width="110" height="110" viewBox="0 0 110 110" fill="none" xmlns="http://www.w3.org/2000/svg">
<rect width="110" height="110" rx="30" fill="white"/>
<path d="M62.3337 76.0679C64.5171 79.7802 66.2326 84.4243 67.4802 90C77.3426 80.9864 80.3875 71.0916 76.6148 60.3157C72.3372 66.3248 67.5768 71.5755 62.3337 76.0679ZM38.7619 80.813C39.6531 80.033 40.5443 79.1952 41.4355 78.2996C40.8265 79.7586 40.5072 81.1525 40.4775 82.4814C40.4626 83.8826 40.7819 85.2332 41.4355 86.5332C41.688 87.0099 41.9925 87.4938 42.3489 87.9849L48.3421 82.1564C50.2285 80.1775 50.5849 78.0685 49.4116 75.8295L33.5931 60.4457C31.2909 59.3046 29.1223 59.6513 27.0875 61.4858L21.0943 67.3143C21.5993 67.661 22.1043 67.9643 22.6093 68.2243C23.9163 68.831 25.2977 69.1343 26.7533 69.1343C28.1198 69.1055 29.5531 68.7949 31.0532 68.2026C30.1175 69.0549 29.256 69.9216 28.4688 70.8027C27.9341 71.3516 27.4365 71.9078 26.9761 72.4711C25.9958 73.6556 25.1046 74.869 24.3025 76.1112C23.8718 76.7613 23.4708 77.4113 23.0994 78.0613C22.7133 78.7546 22.3494 79.4408 22.0077 80.1197C21.681 80.8708 21.3691 81.622 21.072 82.3731C20.7898 83.1387 20.5299 83.9259 20.2922 84.7348C20.0546 85.5438 19.8466 86.3815 19.6684 87.2482C19.5199 88.086 19.3936 88.9166 19.2896 89.74C20.1511 89.6533 21.0052 89.5305 21.8518 89.3716C22.7578 89.2128 23.6267 89.0177 24.4585 88.7866C25.2903 88.5555 26.0997 88.3027 26.887 88.0283C27.6593 87.7394 28.4242 87.4288 29.1817 87.0966C29.8947 86.7788 30.6076 86.4321 31.3206 86.0565C31.9741 85.681 32.6425 85.291 33.3257 84.8865C34.5882 84.092 35.8285 83.2181 37.0464 82.2648C37.6108 81.8025 38.1827 81.3186 38.7619 80.813ZM19 42.8518C24.7333 44.0652 29.5085 45.7336 33.3257 47.857C37.945 42.7579 43.3441 38.1284 49.523 33.9682C38.4426 30.2992 28.2683 33.2604 19 42.8518Z" fill="#81BD49"/>
<path d="M69.9087 26.0813C65.6459 27.8869 61.5242 29.9598 57.5436 32.2998C51.2608 36.1566 45.3715 40.6707 39.8759 45.8419L46.1587 51.9521C46.5152 52.2988 46.686 52.7105 46.6712 53.1872C46.6712 53.6783 46.5004 54.09 46.1587 54.4222C45.8171 54.7544 45.4012 54.9133 44.9111 54.8989C44.4209 54.9133 43.9976 54.7472 43.6412 54.4005L37.336 48.2687C36.8756 48.7454 36.4226 49.2148 35.977 49.6771C33.3926 52.566 33.4223 55.4117 36.0661 58.214L51.7063 73.4245C54.5878 75.9957 57.5139 76.0246 60.4845 73.5111C66.188 68.2821 71.2084 62.663 75.5454 56.6539L70.2652 51.5188C69.9087 51.1721 69.7305 50.7532 69.7305 50.2621C69.7305 49.7998 69.9087 49.3954 70.2652 49.0487C70.6068 48.7165 71.0227 48.5431 71.5128 48.5287C72.003 48.5431 72.4263 48.7237 72.7828 49.0704L77.5729 53.7289C77.8402 53.3244 78.1002 52.9272 78.3527 52.5371C84.175 43.1768 88.3636 33.0076 90.9183 22.0295C91.0817 21.0906 91 20.52 90.6732 20.3178C90.4653 20 89.8786 19.9206 88.9132 20.0794C83.5809 21.2495 78.4343 22.7734 73.4734 24.6513L77.0159 28.0964C77.3724 28.443 77.5506 28.8475 77.5506 29.3097C77.5506 29.8009 77.3724 30.2198 77.0159 30.5664C76.6743 30.8987 76.2584 31.0576 75.7682 31.0431C75.2781 31.0576 74.8548 30.8915 74.4983 30.5448L69.9087 26.0813Z" fill="#EF782F"/>
</svg>
