<svg width="110" height="110" viewBox="0 0 110 110" fill="none" xmlns="http://www.w3.org/2000/svg">
<rect width="110" height="110" rx="30" fill="#1E79F4"/>
<path d="M22.5456 73.1432C21.7912 74.332 21.0507 75.5295 20.3242 76.7355C19.6921 77.7913 20.0082 79.165 21.0647 79.7996L35.5481 88.6753C36.6058 89.3089 37.9779 88.9905 38.6128 87.9352C39.2929 86.7231 39.9977 85.5251 40.727 84.3418C46.4375 74.9401 52.2502 75.9959 62.6096 80.9631L76.9886 87.7217C78.1501 88.2515 79.4205 87.7217 79.9472 86.6659L86.8208 71.1375C87.3474 70.079 86.8208 68.708 85.7604 68.1782C82.6957 66.804 76.6725 63.9507 71.3858 61.3109C51.8296 51.906 35.2287 52.5406 22.5456 73.1432Z" fill="url(#paint0_linear_1_36)"/>
<path d="M87.453 36.8568C88.2076 35.6681 88.9483 34.4705 89.6749 33.2645C90.3093 32.2087 89.9905 30.835 88.9339 30.2004L74.4505 21.3247C73.3934 20.6911 72.0208 21.0095 71.3858 22.0648C70.7071 23.2775 70.0024 24.4756 69.2722 25.6582C63.5612 35.0599 57.7485 34.0041 47.389 29.037L33.0101 22.2783C31.8485 21.7485 30.5814 22.2783 30.0515 23.3341L23.1806 38.8625C22.6512 39.921 23.1806 41.2952 24.2377 41.8218C27.3024 43.196 33.3289 46.0493 38.6122 48.6891C58.1723 57.9892 74.7699 57.4588 87.453 36.8568Z" fill="url(#paint1_linear_1_36)"/>
<defs>
<linearGradient id="paint0_linear_1_36" x1="20" y1="20.5429" x2="89.9156" y2="88.5451" gradientUnits="userSpaceOnUse">
<stop stop-color="#A1CAFE"/>
<stop offset="0.5" stop-color="white"/>
<stop offset="1" stop-color="#A1CAFE"/>
</linearGradient>
<linearGradient id="paint1_linear_1_36" x1="20" y1="20.5429" x2="89.9156" y2="88.5451" gradientUnits="userSpaceOnUse">
<stop stop-color="#A1CAFE"/>
<stop offset="0.5" stop-color="white"/>
<stop offset="1" stop-color="#A1CAFE"/>
</linearGradient>
</defs>
</svg>
