<svg width="110" height="110" viewBox="0 0 110 110" fill="none" xmlns="http://www.w3.org/2000/svg">
<rect width="110" height="110" rx="30" fill="#242938"/>
<path d="M77.9463 51.3516V27.1532L57.0127 15.0538V24.3566L65.2253 29.0889C65.5474 29.2501 65.5474 29.7342 65.2253 29.8954L55.4561 35.5418C55.1878 35.7033 54.8122 35.7033 54.5436 35.5418L44.7747 29.8418C44.4529 29.6806 44.4529 29.1965 44.7747 29.035L52.9873 24.3031V15L32.0537 27.0994V51.3516L40.1051 46.727V37.2089C40.1051 36.8863 40.4807 36.6174 40.8027 36.8324L50.5717 42.4789C50.8403 42.6401 51.0549 42.9627 51.0549 43.2854V54.578C51.0549 54.9006 50.6791 55.1695 50.357 54.9544L42.1447 50.2222L34.0933 54.8468L55.0269 66.9461L75.9604 54.8468L67.909 50.2222L59.6967 54.9544C59.4284 55.1156 58.9989 54.9006 58.9989 54.578V43.2854C58.9989 42.9627 59.1598 42.6401 59.4818 42.4789L69.251 36.8324C69.5193 36.671 69.9486 36.8863 69.9486 37.2089V46.727L77.9463 51.3516Z" fill="#CCCCCC"/>
<path d="M54.9733 67L75.9068 54.9007L67.8554 50.276L59.6431 55.0083C59.3748 55.1698 58.9452 54.9545 58.9452 54.6318V43.3392C58.9452 43.0166 59.1064 42.6939 59.4285 42.5327L69.1974 36.8863C69.4657 36.7251 69.8953 36.9401 69.8953 37.2628V46.7809L77.9464 51.4055L77.9463 27.1532L54.9733 40.4353V67Z" fill="#A6A6A6"/>
<path d="M56.9593 15V24.3028L65.1716 29.035C65.4936 29.1962 65.4936 29.6804 65.1716 29.8418L55.4027 35.488C55.1343 35.6494 54.7585 35.6494 54.4902 35.488L44.7747 29.8418C44.4529 29.6806 44.4529 29.1965 44.7747 29.035L52.9873 24.3031V15L32.0537 27.0994L55.0269 40.3814L78 27.0994L56.9593 15Z" fill="white"/>
<path d="M50.2496 54.9545L42.0373 50.2225L33.9861 54.8471L54.9194 66.9462V40.3818L32 27.153V51.4055L40.0514 46.7809V37.2628C40.0514 36.9401 40.4272 36.6713 40.7493 36.8863L50.5182 42.5327C50.7865 42.6939 51.0012 43.0166 51.0012 43.3392V54.6318C50.9474 54.9007 50.5716 55.1159 50.2496 54.9545Z" fill="#CCCCCC"/>
<path d="M38.8658 90.658C38.6898 90.8047 38.3598 91.0027 37.8758 91.252C37.4065 91.5013 36.8272 91.7213 36.1378 91.912C35.4485 92.1027 34.6858 92.1907 33.8498 92.176C32.5738 92.1467 31.4298 91.9193 30.4178 91.494C29.4205 91.054 28.5698 90.46 27.8658 89.712C27.1765 88.964 26.6485 88.106 26.2818 87.138C25.9152 86.17 25.7318 85.136 25.7318 84.036C25.7318 82.804 25.9152 81.6747 26.2818 80.648C26.6632 79.6213 27.1985 78.734 27.8878 77.986C28.5918 77.238 29.4278 76.6587 30.3958 76.248C31.3638 75.8373 32.4345 75.632 33.6078 75.632C34.6932 75.632 35.6538 75.7787 36.4898 76.072C37.3258 76.3653 38.0078 76.6807 38.5358 77.018L37.2818 80.032C36.9152 79.7533 36.4238 79.4673 35.8078 79.174C35.2065 78.866 34.5098 78.712 33.7178 78.712C33.1018 78.712 32.5078 78.844 31.9358 79.108C31.3785 79.3573 30.8798 79.7167 30.4398 80.186C30.0145 80.6553 29.6772 81.2053 29.4278 81.836C29.1785 82.452 29.0538 83.1267 29.0538 83.86C29.0538 84.6373 29.1638 85.3487 29.3838 85.994C29.6185 86.6393 29.9485 87.1967 30.3738 87.666C30.7992 88.1207 31.3052 88.4727 31.8918 88.722C32.4932 88.9713 33.1678 89.096 33.9158 89.096C34.7812 89.096 35.5218 88.9567 36.1378 88.678C36.7538 88.3993 37.2232 88.106 37.5458 87.798L38.8658 90.658ZM41.5557 74.642H44.6357V92H41.5557V74.642ZM47.0596 87.072C47.0596 86.0893 47.287 85.2093 47.7416 84.432C48.211 83.6547 48.8636 83.046 49.6996 82.606C50.5356 82.1513 51.4963 81.924 52.5816 81.924C53.6816 81.924 54.635 82.1513 55.4416 82.606C56.2483 83.046 56.8643 83.6547 57.2896 84.432C57.7296 85.2093 57.9496 86.0893 57.9496 87.072C57.9496 88.0547 57.7296 88.942 57.2896 89.734C56.8643 90.5113 56.2483 91.1273 55.4416 91.582C54.635 92.0367 53.667 92.264 52.5376 92.264C51.4816 92.264 50.5356 92.0587 49.6996 91.648C48.8783 91.2373 48.233 90.6433 47.7636 89.866C47.2943 89.0887 47.0596 88.1573 47.0596 87.072ZM50.1616 87.094C50.1616 87.5927 50.2643 88.0473 50.4696 88.458C50.675 88.854 50.9536 89.1693 51.3056 89.404C51.6576 89.6387 52.0536 89.756 52.4936 89.756C52.9776 89.756 53.3956 89.6387 53.7476 89.404C54.0996 89.1693 54.371 88.854 54.5616 88.458C54.7523 88.0473 54.8476 87.5927 54.8476 87.094C54.8476 86.5807 54.7523 86.126 54.5616 85.73C54.371 85.334 54.0996 85.0187 53.7476 84.784C53.3956 84.5493 52.9776 84.432 52.4936 84.432C52.0536 84.432 51.6576 84.5493 51.3056 84.784C50.9536 85.0187 50.675 85.334 50.4696 85.73C50.2643 86.126 50.1616 86.5807 50.1616 87.094ZM63.478 92.462C62.6127 92.462 61.8867 92.198 61.3 91.67C60.7133 91.1273 60.4053 90.4307 60.376 89.58V82.386H63.456V88.436C63.4853 88.8613 63.5953 89.206 63.786 89.47C63.9767 89.7193 64.2993 89.844 64.754 89.844C65.2087 89.844 65.5973 89.69 65.92 89.382C66.2573 89.074 66.514 88.656 66.69 88.128C66.8807 87.5853 66.976 86.9767 66.976 86.302V82.386H70.056V92H67.262L67.02 90.24L67.064 90.438C66.844 90.834 66.5653 91.186 66.228 91.494C65.8907 91.802 65.4873 92.0367 65.018 92.198C64.5633 92.374 64.05 92.462 63.478 92.462ZM77.1396 92.264C76.245 92.264 75.4456 92.0587 74.7416 91.648C74.0376 91.2227 73.4803 90.614 73.0696 89.822C72.6736 89.03 72.4756 88.0913 72.4756 87.006C72.4756 85.9207 72.6956 84.9967 73.1356 84.234C73.5756 83.4713 74.177 82.892 74.9396 82.496C75.7023 82.1 76.5676 81.902 77.5356 81.902C78.1516 81.902 78.7383 81.9973 79.2956 82.188C79.8676 82.3787 80.3443 82.672 80.7256 83.068V84.036V74.642H83.7836V92H80.7036V90.13L80.9456 90.79C80.447 91.2007 79.8896 91.5527 79.2736 91.846C78.6576 92.1247 77.9463 92.264 77.1396 92.264ZM78.1516 89.668C78.5623 89.668 78.9216 89.6167 79.2296 89.514C79.5523 89.3967 79.831 89.2353 80.0656 89.03C80.315 88.81 80.5276 88.5387 80.7036 88.216V85.862C80.5863 85.5393 80.403 85.268 80.1536 85.048C79.919 84.8133 79.6256 84.6373 79.2736 84.52C78.9363 84.388 78.5623 84.322 78.1516 84.322C77.697 84.322 77.2716 84.4393 76.8756 84.674C76.4943 84.894 76.1863 85.202 75.9516 85.598C75.717 85.994 75.5996 86.4487 75.5996 86.962C75.5996 87.4753 75.717 87.9373 75.9516 88.348C76.1863 88.7587 76.4943 89.0813 76.8756 89.316C77.2716 89.5507 77.697 89.668 78.1516 89.668Z" fill="#EFEFEF"/>
</svg>
