<svg width="110" height="110" viewBox="0 0 110 110" fill="none" xmlns="http://www.w3.org/2000/svg">
<rect width="110" height="110" rx="30" fill="#242938"/>
<path d="M42.8983 64.7944C36.1093 64.7396 31.2419 58.0046 33.6046 51.7019C34.2666 49.9588 35.3959 48.4351 36.8667 47.3008C38.3374 46.1664 40.0919 45.466 41.9345 45.2774C43.0947 45.1556 44.4876 45.1861 45.6055 44.979C51.3461 43.9042 55.7814 39.4802 56.6788 33.8443C56.8782 32.596 56.7724 31.104 57.0655 29.7796C58.4221 23.6413 65.4015 20.1977 71.2629 22.9715C74.3175 24.4208 76.369 27.155 76.8736 30.422C76.9763 31.0919 77.0105 31.9221 76.9763 32.9126C76.3116 50.7002 61.235 64.9406 42.8983 64.7914M51.4518 67.623C51.4238 67.6114 51.4012 67.5897 51.3884 67.5621L51.3853 67.5438L51.3914 67.5256C51.3914 67.5195 51.3944 67.5154 51.4004 67.5134L51.4186 67.5042C58.3838 65.8966 64.4185 62.6641 69.5226 57.8067C69.6132 57.7214 69.6968 57.7285 69.7734 57.828C70.5891 58.915 71.4472 60.0811 72.13 61.1955C74.9144 65.6873 76.559 70.8006 76.9189 76.0844C76.9934 77.1602 77.0166 77.9914 76.9884 78.5781C76.7346 83.7694 72.4261 87.956 66.9877 87.9864C62.1777 88.0169 57.9477 84.7072 57.0353 80.0791C56.8178 78.983 56.8842 77.4667 56.7029 76.3097C56.1349 72.7473 54.4077 69.865 51.5213 67.6626L51.4518 67.623ZM41.2728 87.8403C37.1849 87.1247 33.8977 83.9247 33.1635 79.9452C33.0458 79.1215 32.9952 78.2896 33.0124 77.4576V64.292C33.0124 64.2494 33.0285 64.2423 33.0608 64.2707C35.7316 66.6639 38.5415 68.1254 42.2095 68.369L43.1944 68.3994C47.9712 68.5547 52.0168 71.7091 52.9504 76.2914C54.3312 83.0661 48.2461 89.0643 41.2728 87.8403Z" fill="white"/>
<path d="M33.1636 30.0549C33.8978 26.0753 37.185 22.8753 41.2729 22.1598C48.2462 20.9358 54.3312 26.934 52.9505 33.7086C52.0169 38.291 47.9713 41.4453 43.1945 41.6006L42.2095 41.6311C38.5416 41.8746 35.7317 43.3361 33.0608 45.7293C33.0286 45.7577 33.0125 45.7506 33.0125 45.708V32.5424C32.9953 31.7105 33.0458 30.8785 33.1636 30.0549Z" fill="white"/>
</svg>
