<svg width="110" height="110" viewBox="0 0 110 110" fill="none" xmlns="http://www.w3.org/2000/svg">
<rect width="110" height="110" rx="30" fill="white"/>
<path d="M55 16C33.472 16 16 33.472 16 55C16 76.528 33.472 94 55 94C76.528 94 94 76.528 94 55C94 33.472 76.528 16 55 16ZM55 78.088C42.247 78.088 31.912 67.753 31.912 55C31.912 42.247 42.247 31.912 55 31.912C67.753 31.912 78.088 42.247 78.088 55C78.088 67.753 67.753 78.088 55 78.088ZM55 34.759C43.846 34.759 34.759 43.846 34.759 55C34.759 66.154 43.846 75.241 55 75.241C66.154 75.241 75.241 66.154 75.241 55C75.241 43.846 66.154 34.759 55 34.759ZM47.473 66.505V43.495L67.402 55L47.473 66.505Z" fill="#CB3F1F"/>
</svg>
