<svg width="110" height="110" viewBox="0 0 110 110" fill="none" xmlns="http://www.w3.org/2000/svg">
<rect width="110" height="110" rx="30" fill="white"/>
<path d="M24.1194 25C22.8008 25 21.8129 26.222 22.0302 27.4439L30.9332 82.5568C31.1532 84.0012 32.3611 85 33.7897 85H76.8678C77.8592 85 78.7378 84.2215 78.9578 83.222L87.9701 27.5551C88.1873 26.222 87.1994 25.1112 85.8808 25.1112L24.1194 25ZM61.9231 64.7778H48.1871L44.5585 45.1117H65.331L61.9231 64.7778Z" fill="#2684FF"/>
<path d="M85.0022 45.1117H65.2217L61.9231 64.7778H48.1871L32.0311 84.2208C32.0311 84.2208 32.8011 84.8888 33.9004 84.8888H76.9785C77.9692 84.8888 78.8478 84.1103 79.0678 83.1107L85.0022 45.1117Z" fill="url(#paint0_linear_1_77)"/>
<defs>
<linearGradient id="paint0_linear_1_77" x1="89.6301" y1="50.6516" x2="56.5757" y2="76.1731" gradientUnits="userSpaceOnUse">
<stop offset="0.176" stop-color="#0052CC"/>
<stop offset="1" stop-color="#2684FF"/>
</linearGradient>
</defs>
</svg>
