<svg width="110" height="110" viewBox="0 0 110 110" fill="none" xmlns="http://www.w3.org/2000/svg">
<rect width="110" height="110" rx="30" fill="white"/>
<path d="M33.7273 83.9098V54.1856L24.381 45.7521L16 41.0722V78.6643C16 81.5667 18.3842 83.9098 21.3183 83.9098H33.7273Z" fill="#4285F4"/>
<path d="M76.2727 83.9098H88.6817C91.6247 83.9098 94 81.558 94 78.6643V41.0725L84.5072 46.4328L76.2727 54.1856V83.9098Z" fill="#34A853"/>
<path d="M33.7273 54.1856L32.4556 42.5714L33.7273 31.4556L55 47.1919L76.2727 31.4556L77.6953 41.9713L76.2727 54.1856L55 69.9219L33.7273 54.1856Z" fill="#EA4335"/>
<path d="M76.2727 31.4556V54.1856L94 41.0725V34.0782C94 27.5915 86.4925 23.8936 81.2366 27.7839L76.2727 31.4556Z" fill="#FBBC04"/>
<path d="M16 41.0722L33.7273 54.1856V31.4556L28.7634 27.7839C23.4984 23.8934 16 27.5916 16 34.0779V41.0722Z" fill="#C5221F"/>
</svg>
