<svg width="110" height="110" viewBox="0 0 110 110" fill="none" xmlns="http://www.w3.org/2000/svg">
<rect width="110" height="110" rx="30" fill="#2D2D2D"/>
<path d="M42.5 91C49.4186 91 55 85.6419 55 79V67H42.5C35.5814 67 30 72.3581 30 79C30 85.6419 35.5814 91 42.5 91Z" fill="#0ACF83"/>
<path d="M30 55C30 48.3581 35.5814 43 42.5 43H55V67H42.5C35.5814 67 30 61.6419 30 55Z" fill="#A259FF"/>
<path d="M30 31C30 24.3581 35.5814 19 42.5 19H55V43H42.5C35.5814 43 30 37.6419 30 31Z" fill="#F24E1E"/>
<path d="M55 19H67.5C74.4186 19 80 24.3581 80 31C80 37.6419 74.4186 43 67.5 43H55V19Z" fill="#FF7262"/>
<path d="M80 55C80 61.6419 74.4186 67 67.5 67C60.5814 67 55 61.6419 55 55C55 48.3581 60.5814 43 67.5 43C74.4186 43 80 48.3581 80 55Z" fill="#1ABCFE"/>
</svg>
