<svg width="110" height="110" viewBox="0 0 110 110" fill="none" xmlns="http://www.w3.org/2000/svg">
<rect width="110" height="110" rx="30" fill="white"/>
<path fill-rule="evenodd" clip-rule="evenodd" d="M55 90.8571C35.0932 90.8571 19 74.764 19 54.8571C19 34.9501 35.0932 18.8571 55 18.8571C74.9068 18.8571 91 34.9501 91 54.8571C91 74.764 74.9068 90.8571 55 90.8571ZM47.616 38.965L38.4396 38.9506L38.4301 46.2195L47.6065 46.2339L47.616 38.965ZM47.616 48.148L38.3776 48.1337L38.3729 55.4456C38.3681 56.5367 36.8427 56.9291 35.589 57.3454L35.5794 62.2935C36.8379 62.7241 38.3586 62.8916 38.3586 64.2698L38.3443 71.1798L47.5826 71.2564L47.5874 65.9686C47.5922 62.3652 46.6769 60.676 44.3125 59.7285C46.572 59.1064 47.6017 57.3837 47.6017 54.3307C47.6065 54.3307 47.616 48.148 47.616 48.148ZM73.8962 62.6811C73.9105 52.3256 59.6621 53.3545 59.6716 49.263C59.6716 48.0093 60.482 47.2292 61.8882 47.2292C63.6472 47.234 64.4243 48.7366 64.4195 50.2392V51.2824L73.7389 51.2968V49.4736C73.7484 43.8891 69.8157 39.4435 61.8978 39.4292C53.0837 39.4148 49.5371 44.2863 49.5323 49.8707C49.518 60.2405 63.7712 59.6376 63.7664 63.3367C63.7664 64.6383 62.9417 65.4135 61.2733 65.4087C59.4619 65.4039 58.518 64.1502 58.518 62.3222V61.5852L49.1986 61.5709V63.2649C49.1891 68.8637 53.1695 73.3045 61.483 73.3141C70.178 73.3284 73.8914 68.2751 73.8962 62.6811Z" fill="#252EC0"/>
</svg>
