<svg width="110" height="110" viewBox="0 0 110 110" fill="none" xmlns="http://www.w3.org/2000/svg">
<rect width="110" height="110" rx="30" fill="white"/>
<path d="M23.5945 79.4224L26.858 85.1343C27.5361 86.3371 28.5108 87.282 29.6552 87.9692C32.9329 83.7529 35.2146 80.5174 36.5001 78.2627C37.8048 75.9746 39.4082 72.3956 41.3104 67.5257C36.1836 66.8418 32.2987 66.4999 29.6555 66.4999C27.1185 66.4999 23.2333 66.8418 18 67.5257C18 68.857 18.3391 70.1884 19.0172 71.3911L23.5945 79.4224Z" fill="#0066DA"/>
<path d="M80.3448 87.9692C81.4895 87.282 82.4642 86.3371 83.142 85.1346L84.4983 82.7725L90.9831 71.3911C91.6486 70.2144 91.9992 68.882 92 67.5257C86.7362 66.8418 82.8583 66.4999 80.3662 66.4999C77.6878 66.4999 73.8097 66.8418 68.7321 67.5257C70.6118 72.4224 72.1941 76.0014 73.479 78.2627C74.7748 80.5442 77.0634 83.7797 80.3448 87.9692Z" fill="#EA4335"/>
<path d="M55 43.4743C58.7925 38.8329 61.4061 35.2539 62.8408 32.7373C63.9962 30.7109 65.2677 27.4754 66.6552 23.0308C65.5108 22.3436 64.197 22 62.8408 22H47.1592C45.803 22 44.4895 22.3867 43.3448 23.0308C45.11 28.1282 46.6077 31.7559 47.838 33.914C49.1977 36.2989 51.585 39.4857 55 43.4743Z" fill="#00832D"/>
<path d="M68.6896 67.5257L41.3104 67.5257L29.6552 87.9692C30.7993 88.6564 32.1134 89 33.4696 89H76.5304C77.8866 89 79.2007 88.6137 80.3448 87.9692L68.6896 67.5257Z" fill="#2684FC"/>
<path d="M55 43.4743L43.3448 23.0308C42.2001 23.718 41.2257 24.6629 40.5476 25.8657L19.0172 63.6603C18.3516 64.837 18.0009 66.1695 18 67.5257H41.3104L55 43.4743Z" fill="#00AC47"/>
<path d="M80.2179 44.7629L69.4524 25.8654C68.7746 24.6627 67.7996 23.718 66.6552 23.0308L55 43.4743L68.6896 67.5257L91.9578 67.5257C91.9578 66.1941 91.6187 64.8631 90.9406 63.6604L80.2179 44.7629Z" fill="#FFBA00"/>
</svg>
