<svg width="110" height="110" viewBox="0 0 110 110" fill="none" xmlns="http://www.w3.org/2000/svg">
<rect width="110" height="110" rx="30" fill="#009DFF"/>
<path d="M52.8997 19C44.2308 19.4916 36.0329 23.1044 29.8212 29.1705C23.6094 35.2366 19.8036 43.346 19.1073 52C18.9642 53.9974 18.9642 56.0026 19.1073 58C19.8058 66.6671 23.6231 74.7871 29.8516 80.855C36.0801 86.9229 44.2975 90.5273 52.9807 91H57.0191C65.8667 90.4653 74.2091 86.6979 80.4601 80.4144C86.7111 74.1309 90.4346 65.7694 90.9225 56.92C91.0258 55.2216 91.0258 53.5184 90.9225 51.82C90.1395 43.1966 86.2869 35.1406 80.0655 29.1175C73.8441 23.0944 65.6672 19.5042 57.0221 19H52.8997ZM64.0008 38.53L72.9717 43.75C72.9717 43.75 54.7779 53.47 54.7179 53.47C54.6579 53.47 36.434 43.81 36.398 43.78L45.3809 38.47L54.3578 33.19L64.0008 38.53ZM44.5709 53.908L51.9996 58V75.76L44.4178 71.56L37.0371 67.27V49.99L44.5709 53.908ZM72.9567 58.624V67.396L65.501 71.722L58.0002 76.051V57.979L65.468 53.944L72.9687 49.879L72.9567 58.624Z" fill="white"/>
</svg>
