<svg width="110" height="110" viewBox="0 0 110 110" fill="none" xmlns="http://www.w3.org/2000/svg">
<rect width="110" height="110" rx="30" fill="url(#paint0_linear_1_429)"/>
<path fill-rule="evenodd" clip-rule="evenodd" d="M55 92C75.4345 92 92 75.4345 92 55C92 34.5655 75.4345 18 55 18C34.5655 18 18 34.5655 18 55C18 75.4345 34.5655 92 55 92ZM43.3905 45.7144C48.0902 47.3327 53.212 44.8347 54.8302 40.1349C56.4485 35.4351 53.9505 30.3134 49.2507 28.6951C44.5509 27.0769 39.4292 29.5749 37.8109 34.2747C36.1927 38.9744 38.6907 44.0962 43.3905 45.7144ZM53.372 59.7276C55.983 60.6266 58.8284 59.2388 59.7275 56.6278C60.6265 54.0169 59.2387 51.1714 56.6277 50.2724C54.0167 49.3734 51.1713 50.7612 50.2723 53.3722C49.3733 55.9831 50.7611 58.8286 53.372 59.7276ZM80.3592 48.9252C78.741 53.625 73.6192 56.123 68.9195 54.5048C64.2197 52.8865 61.7217 47.7648 63.3399 43.065C64.9582 38.3652 70.0799 35.8672 74.7797 37.4855C79.4795 39.1037 81.9775 44.2255 80.3592 48.9252ZM34.6001 71.2434C39.2999 72.8617 44.4216 70.3637 46.0399 65.6639C47.6582 60.9641 45.1601 55.8424 40.4604 54.2241C35.7606 52.6059 30.6388 55.1039 29.0206 59.8037C27.4023 64.5034 29.9004 69.6252 34.6001 71.2434ZM71.5689 74.4542C69.9506 79.154 64.8289 81.652 60.1291 80.0338C55.4294 78.4155 52.9313 73.2938 54.5496 68.594C56.1678 63.8942 61.2896 61.3962 65.9894 63.0145C70.6891 64.6327 73.1872 69.7545 71.5689 74.4542Z" fill="white"/>
<defs>
<linearGradient id="paint0_linear_1_429" x1="110" y1="0" x2="0" y2="110" gradientUnits="userSpaceOnUse">
<stop stop-color="#FF9901"/>
<stop offset="1" stop-color="#F27778"/>
</linearGradient>
</defs>
</svg>
