<svg width="110" height="110" viewBox="0 0 110 110" fill="none" xmlns="http://www.w3.org/2000/svg">
<rect width="110" height="110" rx="30" fill="white"/>
<path d="M55.0531 53.9005L40.9293 45.041V55.6946L55.0531 64.5537L88.873 39.627C87.6804 37.0035 86.1895 34.5263 84.4297 32.2441L55.0531 53.9005Z" fill="#21A038"/>
<path d="M47.7792 91.2886C40.5999 89.86 34.0057 86.3341 28.8308 81.1568L34.861 75.1266C37.3017 77.5705 40.1834 79.5668 43.3792 80.9968C49.1861 83.5939 55.6954 84.172 61.869 82.6386C68.042 81.1046 73.5237 77.548 77.44 72.5359C81.356 67.5237 83.4803 61.3442 83.4738 54.9837C83.4738 54.7302 83.4576 54.4772 83.4576 54.2242L91.4144 48.3561C91.8034 50.5437 92 52.7618 92 54.9837C92.0033 62.3037 89.8352 69.4602 85.77 75.5477C81.7049 81.6352 75.9254 86.3801 69.1629 89.182C62.4003 91.984 54.9586 92.7171 47.7792 91.2886Z" fill="#D9D9D9"/>
<path d="M47.7792 91.2886C40.5999 89.86 34.0057 86.3341 28.8308 81.1568L34.861 75.1266C37.3017 77.5705 40.1834 79.5668 43.3792 80.9968C49.1861 83.5939 55.6954 84.172 61.869 82.6386C68.042 81.1046 73.5237 77.548 77.44 72.5359C81.356 67.5237 83.4803 61.3442 83.4738 54.9837C83.4738 54.7302 83.4576 54.4772 83.4576 54.2242L91.4144 48.3561C91.8034 50.5437 92 52.7618 92 54.9837C92.0033 62.3037 89.8352 69.4602 85.77 75.5477C81.7049 81.6352 75.9254 86.3801 69.1629 89.182C62.4003 91.984 54.9586 92.7171 47.7792 91.2886Z" fill="url(#paint0_linear_1_287)"/>
<path d="M18 54.9837C17.9979 59.8438 18.9531 64.6567 20.8111 69.1476C22.6703 73.6382 25.3953 77.7189 28.8308 81.1568L34.861 75.1267C32.8677 73.1308 31.1685 70.8364 29.8326 68.3082C26.8606 62.6841 25.8583 56.2265 26.9857 49.9661C28.113 43.7058 31.3051 38.0035 36.0523 33.7694C40.7974 29.5341 46.8246 27.0105 53.1717 26.6012C59.5198 26.1915 65.8222 27.9194 71.0737 31.5092L78.2688 26.2099C72.8343 21.8243 66.27 19.0655 59.3341 18.252C52.3983 17.4385 45.3738 18.6036 39.072 21.6127C32.7696 24.6212 27.4468 29.3511 23.7182 35.256C19.9896 41.1609 18.007 48.0001 18 54.9837Z" fill="url(#paint1_linear_1_287)"/>
<defs>
<linearGradient id="paint0_linear_1_287" x1="89.8057" y1="64.3596" x2="49.6495" y2="92.0845" gradientUnits="userSpaceOnUse">
<stop offset="0.302066" stop-color="#21A038"/>
<stop offset="1" stop-color="#F2E913"/>
</linearGradient>
<linearGradient id="paint1_linear_1_287" x1="45.1461" y1="12.9494" x2="32.6827" y2="75.2647" gradientUnits="userSpaceOnUse">
<stop offset="0.232782" stop-color="#0C8ACB"/>
<stop offset="0.5" stop-color="#63BD81"/>
<stop offset="0.799261" stop-color="#F2E913"/>
</linearGradient>
</defs>
</svg>
