<svg width="110" height="110" viewBox="0 0 110 110" fill="none" xmlns="http://www.w3.org/2000/svg">
<rect width="110" height="110" rx="30" fill="white"/>
<path d="M55 19C35.1177 19 19 35.1177 19 55C19 74.8823 35.1177 91 55 91C74.8823 91 91 74.8823 91 55C91 45.4522 87.2072 36.2955 80.4558 29.5442C73.7045 22.7928 64.5478 19 55 19ZM73.144 69.0544L65.0416 47.752C65.0416 47.752 61.768 56.2672 60.8512 58.792C60.2176 60.544 59.752 61.8544 58.6288 63.424C57.0418 65.6306 54.885 67.3644 52.3888 68.44C46.9548 70.7024 40.6931 69.47 36.5217 65.3172C32.3503 61.1643 31.0901 54.9081 33.3283 49.4641C35.5665 44.0201 40.8627 40.4595 46.7488 40.4416C50.0201 40.3906 53.2049 41.4936 55.744 43.5568L53.7712 48.76C52.4656 47.416 50.6896 45.5728 46.6672 45.5728C41.5186 45.6786 37.3827 49.8506 37.3216 55C37.3088 59.4553 40.4197 63.31 44.7773 64.2381C49.1349 65.1663 53.5466 62.9138 55.3504 58.84C55.4752 58.5664 55.5616 58.36 55.6192 58.1776H44.296V53.7136L61.2928 53.68L57.6928 52.72L62.0128 41.368C62.9982 41.1499 64.0036 41.0341 65.0128 41.0224C66.0181 41.0078 67.022 41.0995 68.008 41.296C71.272 49.8592 74.5344 58.4272 77.7952 67C76.369 67.9372 74.7973 68.6314 73.144 69.0544Z" fill="black"/>
</svg>
