<svg width="110" height="110" viewBox="0 0 110 110" fill="none" xmlns="http://www.w3.org/2000/svg">
<rect width="110" height="110" rx="30" fill="#242938"/>
<path d="M86.9253 69.333V35.8275L57.8003 19.0745V31.9553L69.2265 38.5077C69.6746 38.7309 69.6746 39.4012 69.2265 39.6244L55.6346 47.4425C55.2612 47.6661 54.7388 47.6661 54.3651 47.4425L40.7735 39.5502C40.3258 39.327 40.3258 38.6567 40.7735 38.4331L52.1997 31.8811V19L23.0748 35.7529V69.333L34.2767 62.9297V49.7508C34.2767 49.3041 34.7992 48.9318 35.2473 49.2295L48.8388 57.0476C49.2125 57.2709 49.5111 57.7176 49.5111 58.1644V73.8002C49.5111 74.247 48.9883 74.6192 48.5402 74.3215L37.1144 67.7692L25.9124 74.1725L55.0374 90.9254L84.1623 74.1725L72.9604 67.7692L61.5345 74.3215C61.1612 74.5447 60.5636 74.247 60.5636 73.8002V58.1644C60.5636 57.7176 60.7875 57.2709 61.2356 57.0476L74.8275 49.2295C75.2008 49.006 75.7981 49.3041 75.7981 49.7508V62.9297L86.9253 69.333Z" fill="#CCCCCC"/>
<path d="M54.9628 91L84.0877 74.2471L72.8858 67.8437L61.46 74.3961C61.0866 74.6197 60.489 74.3216 60.489 73.8748V58.2389C60.489 57.7922 60.7133 57.3454 61.1614 57.1222L74.7529 49.3041C75.1263 49.0809 75.7238 49.3786 75.7238 49.8254V63.0043L86.9254 69.4076L86.9253 35.8275L54.9628 54.2181V91Z" fill="#A6A6A6"/>
<path d="M57.7259 19V31.8808L69.1518 38.4331C69.5998 38.6563 69.5998 39.3267 69.1518 39.5502L55.5602 47.368C55.1869 47.5915 54.664 47.5915 54.2907 47.368L40.7735 39.5502C40.3258 39.327 40.3258 38.6567 40.7735 38.4331L52.1997 31.8811V19L23.0748 35.7529L55.0374 54.1435L87 35.7529L57.7259 19Z" fill="white"/>
<path d="M48.3907 74.3216L36.9649 67.7696L25.7633 74.1729L54.8879 90.9255V54.144L23 35.8272V69.4076L34.202 63.0043V49.8254C34.202 49.3786 34.7248 49.0064 35.1729 49.3041L48.7644 57.1222C49.1378 57.3454 49.4364 57.7922 49.4364 58.239V73.8748C49.3616 74.2471 48.8388 74.5451 48.3907 74.3216Z" fill="#CCCCCC"/>
</svg>
