<svg width="110" height="110" viewBox="0 0 110 110" fill="none" xmlns="http://www.w3.org/2000/svg">
<rect width="110" height="110" rx="30" fill="#323648"/>
<path d="M34.888 84.9084L17.7031 39.7197C16.6284 36.898 16.2451 33.8599 16.5853 30.8596C16.9255 27.8593 17.9793 24.9842 19.6586 22.4747C21.3378 19.9652 23.5936 17.8944 26.2373 16.4355C28.881 14.9766 31.8357 14.172 34.8541 14.0891C43.2043 13.8749 50.7052 19.167 53.3029 27.1053L68.3442 73.0454C71.3763 82.312 38.2875 93.8592 34.888 84.9084Z" fill="url(#paint0_linear_1_43)"/>
<path d="M86.4513 70.5688L44.335 93.3467C41.8714 94.6791 39.1594 95.4891 36.3685 95.7262C33.5777 95.9633 30.7679 95.6224 28.1147 94.7247C25.4616 93.8271 23.022 92.3919 20.9485 90.509C18.8749 88.6261 17.212 86.3358 16.0634 83.7812C14.9313 81.2745 14.3175 78.5648 14.2589 75.8149C14.2003 73.065 14.6981 70.3316 15.7224 67.7789C16.7468 65.2262 18.2765 62.9069 20.2197 60.9602C22.1629 59.0135 24.4795 57.4797 27.0304 56.4508L71.4452 38.5157C79.0008 35.4663 87.6618 37.9782 92.4137 44.5964C93.8888 46.6423 94.9105 48.9793 95.4104 51.4515C95.9103 53.9236 95.8771 56.474 95.3128 58.9323C94.7485 61.3905 93.6662 63.7001 92.1382 65.7068C90.6102 67.7134 88.671 69.371 86.4513 70.5688Z" fill="url(#paint1_linear_1_43)"/>
<path d="M70.5394 70.9615L27.047 49.9427C24.3295 48.6261 21.9664 46.6784 20.1552 44.2623C18.344 41.8461 17.1372 39.0317 16.6356 36.054C16.134 33.0763 16.3522 30.0218 17.272 27.1456C18.1917 24.2695 19.7863 21.6551 21.9226 19.521C27.8324 13.6138 36.9258 12.2999 44.2665 16.2926L86.7165 39.3526C95.2625 44.0045 98.4823 54.6609 93.9422 63.2663C89.4879 71.7161 79.1398 75.1188 70.5394 70.9615Z" fill="url(#paint2_linear_1_43)"/>
<path d="M26.0393 94.141C23.1664 92.8302 20.6335 90.876 18.6369 88.4296C16.6402 85.9831 15.2331 83.1101 14.5247 80.0328C13.8162 76.9555 13.8253 73.7564 14.5513 70.6832C15.2772 67.6099 16.7006 64.745 18.7111 62.3099L55.5067 17.847C58.4491 14.2823 63.4133 13.1279 67.6267 15.0286C72.5042 17.2269 74.8841 22.7955 73.1016 27.8397L53.9179 82.2694C52.9764 84.9613 51.4835 87.4272 49.5347 89.5093C47.5858 91.5914 45.224 93.2439 42.6001 94.3612C39.9763 95.4786 37.1481 96.0361 34.2965 95.9982C31.4449 95.9603 28.6325 95.3277 26.0393 94.141Z" fill="url(#paint3_linear_1_43)"/>
<path d="M29.3876 29.3769H80.635V80.6211H29.3876V29.3769Z" fill="black"/>
<path d="M35.7766 70.9359H54.9942V74.139H35.7766V70.9359ZM40.9439 39.6172H35.076V35.7056H51.0482V39.6172H45.18V54.9818H40.9442L40.9439 39.6172ZM52.6447 45.557L52.6453 45.3482C52.6205 44.0252 52.8643 42.7109 53.3618 41.4848C53.8593 40.2587 54.6003 39.1462 55.54 38.2145C56.4797 37.2829 57.5985 36.5514 58.8289 36.0644C60.0593 35.5774 61.3756 35.345 62.6984 35.3811C64.103 35.3093 65.5068 35.5364 66.8172 36.0472C68.1276 36.5581 69.3147 37.3411 70.3001 38.3446L67.6011 41.4536C66.3047 40.1082 64.5317 39.326 62.6641 39.2754C59.4545 39.2754 57.1303 41.9148 57.0791 45.1451L57.0781 45.3139C57.0781 48.6192 59.3674 51.3694 62.6644 51.3694C64.6174 51.3694 65.8996 50.6983 67.2244 49.5705L67.4288 49.3934C67.5311 49.3029 67.6341 49.21 67.7379 49.1147L70.4369 51.839C69.4628 52.9695 68.2449 53.8644 66.8749 54.4562C65.5049 55.0479 64.0185 55.3212 62.5277 55.2554C61.2396 55.2759 59.9604 55.0405 58.7641 54.5626C57.5679 54.0848 56.4784 53.3742 55.559 52.4719C54.6396 51.5697 53.9085 50.4938 53.4082 49.3068C52.9079 48.1198 52.6484 46.8452 52.6447 45.557Z" fill="white"/>
<defs>
<linearGradient id="paint0_linear_1_43" x1="4371.73" y1="5534.98" x2="3825.69" y2="3236.85" gradientUnits="userSpaceOnUse">
<stop stop-color="#07C3F2"/>
<stop offset="1" stop-color="#6B57FF"/>
</linearGradient>
<linearGradient id="paint1_linear_1_43" x1="2948.29" y1="4436.75" x2="5476.27" y2="3524.75" gradientUnits="userSpaceOnUse">
<stop stop-color="#07C3F2"/>
<stop offset="1" stop-color="#009AE5"/>
</linearGradient>
<linearGradient id="paint2_linear_1_43" x1="6080.28" y1="5273.97" x2="1798.48" y2="2889.9" gradientUnits="userSpaceOnUse">
<stop stop-color="#009AE5"/>
<stop offset="1" stop-color="#6B57FF"/>
</linearGradient>
<linearGradient id="paint3_linear_1_43" x1="3263.58" y1="6633.7" x2="5331.45" y2="857.534" gradientUnits="userSpaceOnUse">
<stop offset="0.3" stop-color="#07C3F2"/>
<stop offset="0.6" stop-color="#3BEA62"/>
</linearGradient>
</defs>
</svg>
