<svg width="110" height="110" viewBox="0 0 110 110" fill="none" xmlns="http://www.w3.org/2000/svg">
<rect width="110" height="110" rx="30" fill="#3659FF"/>
<path d="M69.2871 19.1211H69.8242C71.7578 19.1211 73.584 19.5293 75.2383 20.3242C76.3555 20.9473 77.3008 21.7207 78.0957 22.6445C79.4063 24.2559 80.3516 26.168 80.8887 28.3809C81.3828 30.3145 81.6192 32.4629 81.6406 34.7188C81.6621 36.2227 81.6406 37.7051 81.5762 39.1445C81.5762 39.1875 81.6621 39.1445 81.8555 39.0586C82.9727 38.5 84.0469 37.877 85.0781 37.1895C86.0664 36.7598 87.0117 36.7598 87.8067 37.1465C88.2363 37.3184 88.4512 37.791 88.4512 38.6504C88.4512 39.7246 88.2578 40.6699 87.8926 41.5508C87.377 42.8398 86.5391 44.0215 85.3574 45.0527C84.2832 45.998 82.9942 46.75 81.5332 47.3086C81.3613 47.373 81.2539 47.4805 81.2539 47.6094L80.7383 52.8945C80.3086 56.8477 79.6641 60.6289 78.7402 64.2812C77.7305 67.7187 76.4844 71.0059 75.002 74.1641C73.6485 77.0859 71.8867 79.75 69.6738 82.1133C67.8262 84.0469 65.8067 85.6582 63.5723 86.9258C60.8652 88.4727 57.9434 89.5469 54.8281 90.1484C51.7344 90.793 48.5332 91.0078 45.2676 90.8574C42.002 90.7285 38.9727 89.9336 36.1582 88.4941C34.6543 87.6348 33.3223 86.6035 32.2266 85.3789C30.5293 83.2949 29.4766 80.8672 29.0254 78.1601C28.8106 76.957 28.6816 75.7969 28.6602 74.7226C28.5527 73.6484 28.6172 72.4883 28.875 71.2852C29.4766 68.1484 30.2285 64.9473 31.1094 61.6602L34.3965 48.5547C34.8906 46.4707 35.3203 44.5586 35.6426 42.7539C36.2012 39.9609 36.3731 37.2969 36.1367 34.8047C36.0508 33.2363 35.5996 31.8398 34.7832 30.6367C34.1602 29.9492 33.4297 29.5625 32.5918 29.5625C31.582 29.5195 30.7012 29.7773 29.9063 30.3789L25.8672 33.2793C25.0938 33.8379 24.2774 34.1387 23.418 34.2031C22.7949 34.2461 22.3438 34.1172 22.043 33.8164C21.7637 33.5371 21.6133 33.0859 21.5703 32.4629C21.4199 29.9277 22.0859 27.6934 23.5684 25.7598C24.4277 24.6855 25.502 23.7187 26.8125 22.8809C28.5742 21.6777 30.5078 20.8184 32.6348 20.3027C34.418 19.873 36.3516 19.7441 38.4356 19.8301C40.5195 19.9805 42.3672 20.6035 44.0215 21.7207C45.1816 22.5801 46.1699 23.6543 46.9219 24.9004C48.791 27.8223 49.6289 31.1094 49.457 34.7188C49.3926 38.1992 48.9199 41.5937 48.0606 44.9883L44.7949 58.9531C44.1719 61.6816 43.6777 64.2812 43.291 66.7305C42.9902 69.0937 42.9473 71.457 43.1192 73.8848C43.291 75.3887 44 76.6133 45.2246 77.5801C45.9121 78.0957 46.7285 78.4395 47.6309 78.6543C48.4473 78.8262 49.3496 78.9336 50.3809 78.9551C53.6035 78.9121 56.5039 77.9668 59.125 76.1191C60.4141 75.2168 61.6172 74.1855 62.7344 73.0254C64.4531 71.1777 65.8496 69.1582 67.0313 66.9238C68.8789 63.2715 70.2539 59.4043 71.1133 55.4082C71.5859 53.3887 71.9942 51.1543 72.4024 48.6836C69.2656 48.5332 66.3867 47.7383 63.7012 46.2988C62.584 45.6328 61.5527 44.7949 60.5859 43.7637C59.5117 42.582 58.6524 41.3145 58.0508 39.9395C57.1055 37.748 56.5899 35.4277 56.5469 32.9141C56.4395 31.0234 56.6543 29.2187 57.1914 27.5C57.9434 25.3301 59.2324 23.4824 61.0586 21.9141C62.3692 20.8398 63.8945 20.0879 65.6133 19.6367C66.7949 19.3359 68.0195 19.1641 69.2656 19.1426L69.2871 19.1211ZM70.4473 27.3926C69.8887 27.3926 69.459 27.6074 69.1797 28.0801C69.0723 28.252 69.0078 28.4238 68.9219 28.6172L68.75 29.1758L68.6641 29.7773V30.4219C68.6641 30.8945 68.6856 31.3242 68.7285 31.7109C68.7715 32.0977 68.8359 32.5273 68.9434 32.8926L69.0723 33.5371C69.1367 33.752 69.1797 33.9668 69.2871 34.1816C69.3301 34.3965 69.416 34.5898 69.502 34.7832L69.7598 35.3633L70.082 35.9219C70.1895 36.1152 70.3184 36.2656 70.4473 36.4375L70.877 36.9316L71.3496 37.4043C71.6504 37.7051 71.9942 37.9629 72.2949 38.1992C72.5957 38.4355 72.9395 38.6289 73.2832 38.8223C73.3692 37.0176 73.4336 35.2129 73.4551 33.4082V32.334C73.4551 31.9902 73.3906 31.6465 73.3477 31.3242L73.1973 30.3574L72.9824 29.4336C72.9395 29.2617 72.875 29.0898 72.7676 28.918L72.4238 28.3379C72.1231 27.8867 71.7149 27.5859 71.2422 27.4355L70.7266 27.3496H70.4688L70.4473 27.3926Z" fill="white"/>
</svg>
