<svg width="110" height="110" viewBox="0 0 110 110" fill="none" xmlns="http://www.w3.org/2000/svg">
<rect width="110" height="110" rx="30" fill="#1E79F4"/>
<path d="M51.126 56H18C18 64.3074 24.6952 71.0418 32.9536 71.0418H39.0749V76.968C39.0803 85.2602 45.7561 91.9843 54 92V58.8909C54 57.2944 52.7132 56 51.126 56Z" fill="url(#paint0_linear_1_42)"/>
<path d="M68.126 39H35C35.0051 47.2998 41.6926 54.0269 49.944 54.0323H56.0463V59.9778C56.0568 68.2775 62.7488 75 71 75V41.8912C71 40.2946 69.7132 39 68.126 39Z" fill="url(#paint1_linear_1_42)"/>
<path d="M85.1263 22H52C51.9999 23.9753 52.3867 25.9313 53.1381 27.7562C53.8896 29.5812 54.9911 31.2394 56.3797 32.6361C57.7683 34.0329 59.4168 35.1408 61.2311 35.8967C63.0454 36.6526 64.99 37.0416 66.9537 37.0415H73.056V42.968C73.0614 51.2676 79.7488 57.9946 88 58V24.8906C88 23.2946 86.7138 22 85.1263 22Z" fill="white"/>
<defs>
<linearGradient id="paint0_linear_1_42" x1="53.9644" y1="56.0069" x2="17.9999" y2="92.1831" gradientUnits="userSpaceOnUse">
<stop stop-color="#9CC7FF"/>
<stop offset="0.508802" stop-color="white"/>
</linearGradient>
<linearGradient id="paint1_linear_1_42" x1="70.9644" y1="39.0069" x2="34.9999" y2="75.1831" gradientUnits="userSpaceOnUse">
<stop stop-color="#9CC7FF"/>
<stop offset="0.508802" stop-color="white"/>
</linearGradient>
</defs>
</svg>
