<svg width="110" height="110" viewBox="0 0 110 110" fill="none" xmlns="http://www.w3.org/2000/svg">
<rect width="110" height="110" rx="30" fill="url(#paint0_linear_52_252)"/>
<rect width="110" height="110" rx="30" fill="white" fill-opacity="0.01"/>
<path d="M18.25 39.9795L30.4883 63.0672C31.3356 64.653 33.4067 65.9123 35.1012 65.9123L60.0956 65.8657C61.7901 65.8657 62.4961 64.6064 61.6489 63.0205L49.4106 39.9328C48.5633 38.347 46.5393 37.0877 44.7977 37.0877H19.7092C18.0617 37.181 17.4027 38.4403 18.25 39.9795ZM65.6969 66.8918L73.087 80.6045C73.6048 81.5373 74.8286 82.2836 75.8641 82.2836L90.7384 82.1437C91.7739 82.1437 92.1505 81.3508 91.6798 80.4179L84.2427 66.7052C83.7249 65.7724 82.501 65.0261 81.5126 65.0261L66.6383 65.1661H66.5913C65.5557 65.2127 65.1792 65.959 65.6969 66.8918Z" fill="#9ACA3C"/>
<path d="M65.744 14.8396L50.8698 33.7761C49.8342 35.0821 49.7401 37.3675 50.5873 38.9534L63.0139 61.9478C63.8612 63.5336 65.3674 63.7668 66.403 62.4608L81.2772 43.5243C82.2657 42.2183 82.4069 39.9328 81.5596 38.347L69.1331 15.3526C68.6624 14.4198 67.9563 14 67.2032 14C66.6854 14 66.1676 14.2799 65.744 14.8396ZM62.3079 67.125L53.4116 78.4123C52.7997 79.2052 52.7055 80.5579 53.2233 81.4907L60.6604 95.2034C61.1782 96.1362 62.0725 96.2761 62.6844 95.4832L71.5337 84.1959C72.1456 83.403 72.2397 82.0504 71.7219 81.1175L64.2848 67.4049C64.0024 66.8918 63.5788 66.6119 63.1551 66.6119C62.8256 66.6119 62.5432 66.7985 62.3079 67.125Z" fill="#50AADF"/>
<defs>
<linearGradient id="paint0_linear_52_252" x1="55" y1="0" x2="55" y2="110" gradientUnits="userSpaceOnUse">
<stop stop-color="#3C4461"/>
<stop offset="1" stop-color="#323856"/>
</linearGradient>
</defs>
</svg>
