<svg width="110" height="110" viewBox="0 0 110 110" fill="none" xmlns="http://www.w3.org/2000/svg">
<rect width="110" height="110" rx="30" fill="white"/>
<path d="M47.4 66.1429L67.122 55L47.4 43.8571V66.1429ZM91.328 37.06C91.822 38.8057 92.164 41.1457 92.392 44.1171C92.658 47.0886 92.772 49.6514 92.772 51.88L93 55C93 63.1343 92.392 69.1143 91.328 72.94C90.378 76.2829 88.174 78.4371 84.754 79.3657C82.968 79.8486 79.7 80.1829 74.684 80.4057C69.744 80.6657 65.222 80.7771 61.042 80.7771L55 81C39.078 81 29.16 80.4057 25.246 79.3657C21.826 78.4371 19.622 76.2829 18.672 72.94C18.178 71.1943 17.836 68.8543 17.608 65.8829C17.342 62.9114 17.228 60.3486 17.228 58.12L17 55C17 46.8657 17.608 40.8857 18.672 37.06C19.622 33.7171 21.826 31.5629 25.246 30.6343C27.032 30.1514 30.3 29.8171 35.316 29.5943C40.256 29.3343 44.778 29.2229 48.958 29.2229L55 29C70.922 29 80.84 29.5943 84.754 30.6343C88.174 31.5629 90.378 33.7171 91.328 37.06Z" fill="#CB3F1F"/>
</svg>
