<svg width="110" height="110" viewBox="0 0 110 110" fill="none" xmlns="http://www.w3.org/2000/svg">
<rect width="110" height="110" rx="30" fill="#FFD600"/>
<path d="M18 23.2241H92V58.1567C92 67.771 86.9103 76.6556 78.6484 81.4631L55.0003 95.2241L31.3518 81.4631C23.0896 76.6556 18 67.771 18 58.1567L18 23.2241Z" fill="white"/>
<path fill-rule="evenodd" clip-rule="evenodd" d="M38.4138 41.2241V52.8153C39.9867 51.0254 42.8465 49.8142 46.1165 49.8142H49.6697V63.2888C49.6697 66.8736 48.7031 70.3839 47.2691 72.1098H62.7256C61.2946 70.3821 60.3303 66.8762 60.3303 63.2957V49.8142H63.8839C67.1536 49.8142 70.0133 51.0254 71.5862 52.8153V41.2241H38.4138Z" fill="#333333"/>
</svg>
