<svg width="110" height="110" viewBox="0 0 110 110" fill="none" xmlns="http://www.w3.org/2000/svg">
<rect width="110" height="110" rx="30" fill="white"/>
<path fill-rule="evenodd" clip-rule="evenodd" d="M80.0017 38.3316V83.3316C80.0017 85.1733 78.5084 86.665 76.6684 86.665H33.335C31.4934 86.665 30.0017 85.1733 30.0017 83.3316V26.665C30.0017 24.825 31.4934 23.3316 33.335 23.3316H65.0017L68.335 34.9983L80.0017 38.3316Z" fill="url(#paint0_linear_1_356)"/>
<path fill-rule="evenodd" clip-rule="evenodd" d="M41.665 45.0017V50H70.0017V45.0017H41.665Z" fill="white"/>
<path fill-rule="evenodd" clip-rule="evenodd" d="M41.6683 55.0017V60H70.005V55.0017H41.6683Z" fill="white"/>
<path fill-rule="evenodd" clip-rule="evenodd" d="M41.665 65.0017V70H61.6667V65.0017H41.665Z" fill="white"/>
<path fill-rule="evenodd" clip-rule="evenodd" d="M65.0017 38.3316L65.0034 23.3316L80.0017 38.33L65.0017 38.3316Z" fill="url(#paint1_linear_1_356)"/>
<defs>
<linearGradient id="paint0_linear_1_356" x1="13.395" y1="19.9183" x2="64.365" y2="70.8867" gradientUnits="userSpaceOnUse">
<stop stop-color="#55ADFD"/>
<stop offset="1" stop-color="#438FFD"/>
</linearGradient>
<linearGradient id="paint1_linear_1_356" x1="75.8717" y1="27.4616" x2="66.6684" y2="36.665" gradientUnits="userSpaceOnUse">
<stop stop-color="#427FDB"/>
<stop offset="1" stop-color="#0C52BB"/>
</linearGradient>
</defs>
</svg>
