<svg width="110" height="110" viewBox="0 0 110 110" fill="none" xmlns="http://www.w3.org/2000/svg">
<rect width="110" height="110" rx="30" fill="white"/>
<path d="M26 83.0192V26.9841C26 20.8464 32.592 17.0101 37.8685 20.0815L86.0443 48.0977C91.3186 51.1665 91.3186 58.8343 86.0443 61.901L37.8685 89.9196C32.594 92.9883 26 89.1547 26 83.0192Z" fill="#2F80ED"/>
<path d="M74.2353 41.2307L48.9228 56.0918L44.0895 47.3621C43.8213 46.8763 43.4613 46.4496 43.0302 46.1066C42.5992 45.7636 42.1057 45.5111 41.5783 45.3639C40.5117 45.0586 39.3699 45.1962 38.4025 45.7464L26 52.7666V61.375L39.1883 53.9072L44.0433 62.682C44.5863 63.6607 45.5133 64.3923 46.5858 64.6889C47.6665 64.9851 48.8181 64.8339 49.79 64.2684L81.6658 45.551L74.2353 41.2307Z" fill="#CCF6FF"/>
</svg>
