<svg width="110" height="110" viewBox="0 0 110 110" fill="none" xmlns="http://www.w3.org/2000/svg">
<rect width="110" height="110" rx="30" fill="white"/>
<path d="M20 55.0005C20 69.3325 28.6182 81.6448 40.9505 87.0581C40.8521 84.6141 40.933 81.6801 41.5597 79.0209C42.2327 76.1796 46.0632 59.9492 46.0632 59.9492C46.0632 59.9492 44.9452 57.7144 44.9452 54.4116C44.9452 49.2247 47.9513 45.3509 51.6952 45.3509C54.8789 45.3509 56.417 47.7421 56.417 50.6056C56.417 53.8059 54.3757 58.593 53.326 63.0268C52.4491 66.7395 55.1876 69.7678 58.8503 69.7678C65.4817 69.7678 69.948 61.2505 69.948 51.159C69.948 43.488 64.7814 37.7464 55.3842 37.7464C44.7671 37.7464 38.153 45.664 38.153 54.5081C38.153 57.5575 39.052 59.7078 40.4602 61.373C41.1077 62.1378 41.1977 62.4454 40.9634 63.3237C40.7955 63.9677 40.4099 65.518 40.2502 66.1325C40.0173 67.0189 39.2989 67.3359 38.4978 67.0086C33.6076 65.0122 31.3302 59.6569 31.3302 53.6369C31.3302 43.6945 39.7154 31.7726 56.3448 31.7726C69.7077 31.7726 78.5028 41.4424 78.5028 51.8224C78.5028 65.5525 70.8695 75.81 59.6175 75.81C55.8389 75.81 52.2845 73.7674 51.0669 71.4473C51.0669 71.4473 49.035 79.5115 48.6046 81.0687C47.8625 83.7673 46.41 86.4645 45.0819 88.5666C48.3023 89.5188 51.6431 90.0022 55.0014 90.0019C74.329 90.0019 90.0003 74.3315 90.0003 55.0005C90.0003 35.6704 74.329 20 55.0014 20C35.6718 20 20 35.6704 20 55.0005Z" fill="#CB1F27"/>
</svg>
