<svg width="110" height="110" viewBox="0 0 110 110" fill="none" xmlns="http://www.w3.org/2000/svg">
<rect width="110" height="110" rx="30" fill="white"/>
<path d="M81.3171 78.3036C81.7189 78.1429 82.0671 78.1027 82.3618 78.183C82.6564 78.2634 82.8037 78.4978 82.8037 78.8862C82.8037 79.2746 82.6028 79.7232 82.201 80.2321C81.8528 80.6607 81.2635 81.2433 80.4332 81.9799C79.6028 82.7165 78.3238 83.6272 76.5961 84.712C74.8684 85.7969 72.9801 86.7879 70.9309 87.6853C68.8818 88.5826 66.364 89.3594 63.3774 90.0156C60.3908 90.6719 57.3171 91 54.1564 91C50.9689 91 47.7814 90.5848 44.5939 89.7545C41.4064 88.9241 38.6073 87.8995 36.1966 86.6808C33.7859 85.462 31.4756 84.0692 29.2658 82.5022C27.0559 80.9353 25.2814 79.529 23.9421 78.2835C22.6028 77.0379 21.4778 75.8661 20.5671 74.7679C20.3528 74.5268 20.2189 74.3058 20.1653 74.1049C20.1118 73.904 20.1251 73.7433 20.2055 73.6228C20.2859 73.5022 20.393 73.4085 20.5269 73.3415C20.6609 73.2746 20.8149 73.2478 20.989 73.2612C21.1631 73.2746 21.3171 73.3348 21.451 73.442C26.5939 76.5759 30.6117 78.7991 33.5046 80.1116C43.9242 84.8259 54.6251 86.0312 65.6073 83.7277C70.6966 82.6562 75.9332 80.8482 81.3171 78.3036ZM89.6341 73.683C89.9287 74.1116 89.9622 75.0424 89.7345 76.4754C89.5068 77.9085 89.1251 79.2812 88.5894 80.5937C87.6787 82.817 86.5403 84.4777 85.1742 85.5759C84.7189 85.9509 84.3707 86.0714 84.1296 85.9375C83.8885 85.8036 83.8885 85.4821 84.1296 84.9732C84.6921 83.7679 85.2881 82.1406 85.9176 80.0915C86.547 78.0424 86.6341 76.7232 86.1787 76.1339C86.0448 75.9464 85.8372 75.7924 85.5559 75.6719C85.2747 75.5513 84.9131 75.471 84.4711 75.4308C84.0292 75.3906 83.6341 75.3571 83.2859 75.3304C82.9376 75.3036 82.4689 75.3036 81.8796 75.3304C81.2903 75.3571 80.8684 75.3839 80.614 75.4107C80.3595 75.4375 79.9443 75.4777 79.3684 75.5312C78.7926 75.5848 78.4912 75.6116 78.4644 75.6116C78.3037 75.6384 78.1296 75.6585 77.9421 75.6719C77.7546 75.6853 77.6073 75.6987 77.5001 75.712C77.393 75.7254 77.2792 75.7388 77.1586 75.7522C77.0381 75.7656 76.9443 75.7723 76.8774 75.7723H76.4756L76.3551 75.7522L76.2747 75.692L76.2144 75.5714C76.0537 75.1429 76.6832 74.6071 78.1028 73.9643C79.5225 73.3214 80.9019 72.9196 82.2412 72.7589C83.4734 72.5714 84.9198 72.558 86.5805 72.7187C88.2412 72.8795 89.2591 73.2009 89.6341 73.683Z" fill="#FF9500"/>
<path d="M73.8037 55.8839C73.8037 56.7143 73.9845 57.5714 74.3461 58.4554C74.7077 59.3393 75.1363 60.1161 75.6318 60.7857C76.1274 61.4554 76.6296 62.0714 77.1385 62.6339C77.6475 63.1964 78.0894 63.625 78.4644 63.9196L78.9867 64.3616L69.8662 73.3616C68.7948 72.3705 67.7367 71.3594 66.6921 70.3281C65.6475 69.2969 64.8707 68.5134 64.3617 67.9777L63.5984 67.1741C63.3037 66.8795 62.9689 66.4375 62.5939 65.8482C61.576 67.4286 60.2702 68.8013 58.6765 69.9665C57.0827 71.1317 55.3751 71.9821 53.5537 72.5179C51.7323 73.0536 49.8573 73.3616 47.9287 73.442C46.0001 73.5223 44.1586 73.2411 42.4042 72.5982C40.6497 71.9554 39.076 71.0781 37.6832 69.9665C36.2903 68.8549 35.1787 67.3415 34.3483 65.4263C33.518 63.5112 33.1028 61.3348 33.1028 58.8973C33.1028 56.6473 33.4778 54.5848 34.2278 52.7098C34.9778 50.8348 35.9421 49.2746 37.1207 48.029C38.2992 46.7835 39.7256 45.6719 41.3997 44.6942C43.0738 43.7165 44.7144 42.9531 46.3216 42.404C47.9287 41.8549 49.6698 41.3929 51.5448 41.0179C53.4198 40.6429 55.0202 40.3951 56.3461 40.2746C57.672 40.154 59.0046 40.067 60.3439 40.0134V34.9107C60.3439 33.1696 60.0626 31.8705 59.5001 31.0134C58.5894 29.5938 56.9689 28.8839 54.6385 28.8839C54.4778 28.8839 54.2568 28.8973 53.9756 28.9241C53.6943 28.9509 53.1519 29.1116 52.3484 29.4062C51.5448 29.7009 50.7948 30.096 50.0983 30.5915C49.4019 31.0871 48.6519 31.8839 47.8483 32.9821C47.0448 34.0804 46.4019 35.3661 45.9198 36.8393L34.1073 35.7545C34.1073 34.1473 34.4019 32.5536 34.9912 30.9732C35.5805 29.3929 36.4778 27.8795 37.6832 26.433C38.8885 24.9866 40.335 23.7143 42.0225 22.6161C43.71 21.5179 45.739 20.6406 48.1095 19.9844C50.48 19.3281 53.0314 19 55.7635 19C58.4421 19 60.8662 19.3348 63.0359 20.0045C65.2055 20.6741 66.9399 21.4978 68.239 22.4754C69.5381 23.4531 70.6229 24.5647 71.4934 25.8103C72.364 27.0558 72.9667 28.2076 73.3015 29.2656C73.6363 30.3237 73.8037 31.308 73.8037 32.2188V55.8839ZM46.8037 56.7277C46.8037 59.0312 47.7412 60.8125 49.6162 62.0714C51.3841 63.25 53.2457 63.5446 55.201 62.9554C57.451 62.2857 58.9778 60.6384 59.7814 58.0134C60.1564 56.808 60.3439 55.4554 60.3439 53.9554V47.4464C58.7635 47.5 57.2769 47.6607 55.8841 47.9286C54.4912 48.1964 53.0649 48.6451 51.605 49.2746C50.1452 49.904 48.98 50.8549 48.1095 52.1272C47.239 53.3996 46.8037 54.933 46.8037 56.7277Z" fill="#242938"/>
</svg>
