<svg width="110" height="110" viewBox="0 0 110 110" fill="none" xmlns="http://www.w3.org/2000/svg">
<rect width="110" height="110" rx="30" fill="white"/>
<path fill-rule="evenodd" clip-rule="evenodd" d="M80.6683 38.3316V83.3316C80.6683 85.1733 79.175 86.665 77.335 86.665H34.0017C32.16 86.665 30.6683 85.1733 30.6683 83.3316V26.665C30.6683 24.825 32.16 23.3316 34.0017 23.3316H65.6683L69.0017 34.9983L80.6683 38.3316Z" fill="#21AD64"/>
<path fill-rule="evenodd" clip-rule="evenodd" d="M65.6683 38.3316L65.67 23.3316L80.6683 38.33L65.6683 38.3316Z" fill="#107C42"/>
<path d="M69.5556 47.8333H41.1112C40.128 47.8333 39.3334 48.6173 39.3334 49.5833V67.0833C39.3334 68.0493 40.128 68.8333 41.1112 68.8333H69.5556C70.5387 68.8333 71.3334 68.0493 71.3334 67.0833V49.5833C71.3334 48.6173 70.5387 47.8333 69.5556 47.8333ZM67.7778 56.5833H57.1112V51.3333H67.7778V56.5833ZM53.5556 51.3333V56.5833H42.8889V51.3333H53.5556ZM42.8889 60.0833H53.5556V65.3333H42.8889V60.0833ZM57.1112 65.3333V60.0833H67.7778V65.3333H57.1112Z" fill="white"/>
</svg>
