<svg width="110" height="110" viewBox="0 0 110 110" fill="none" xmlns="http://www.w3.org/2000/svg">
<rect width="110" height="110" rx="30" fill="white"/>
<path d="M43.7088 73.3972L43.7794 37.336H56.482C66.2912 37.336 72.1485 43.6167 71.9368 55.6841C71.7251 67.187 65.656 73.3972 56.4114 73.3972H43.7088ZM55.7057 65.0699C58.5991 64.8582 62.1981 63.6585 62.1981 55.4724C62.1981 47.2863 57.9639 45.5927 55.6351 45.5221C55.3528 45.5221 53.8003 45.5221 53.518 45.5927V65.1405H55.7057V65.0699ZM72.0073 75.232C60.8573 84.9001 44.0617 83.7004 34.3936 72.6209C24.7255 61.4709 25.9252 44.6752 37.0047 35.0072C48.1547 25.3391 64.9504 26.5388 74.6184 37.6182C84.2159 48.6977 83.0868 65.4228 72.1485 75.0908H85.1333C96.0011 58.4364 91.3435 36.1363 74.689 25.2685C58.0345 14.4008 35.7344 19.0584 24.8667 35.7129C13.9989 52.3674 18.6565 74.6674 35.311 85.5352C46.3199 92.7333 60.4339 93.3684 72.0779 87.0877V75.232H72.0073ZM85.2039 83.2064C85.2039 85.9586 83.0162 88.1463 80.264 88.1463C77.5118 88.1463 75.3241 85.9586 75.3241 83.2064C75.3241 80.4541 77.5118 78.2665 80.264 78.2665C82.9457 78.2665 85.2039 80.4541 85.2039 83.2064Z" fill="#E24747"/>
</svg>
