<svg width="110" height="110" viewBox="0 0 110 110" fill="none" xmlns="http://www.w3.org/2000/svg">
<rect width="110" height="110" rx="30" fill="white"/>
<path d="M53.3582 19.1153C54.3951 19.0287 55.4028 19 56.4398 19C75.1885 19.6913 90.2511 34.7247 90.9998 53.4737V81.784C90.9711 86.9103 86.7951 91.0287 81.6975 91.0003C77.0318 90.28 73.4605 86.4783 73.0285 81.784V53.4734C72.2511 43.5953 63.6111 36.1934 53.7325 36.9713C53.6172 36.9713 53.5022 37 53.3871 37" fill="#FBBC04"/>
<path d="M90.9999 81.9857C90.9999 86.9393 86.9679 90.9713 82.0142 90.9713C77.0606 90.9713 73.0286 86.9393 73.0286 81.9854C73.0286 77.032 77.0606 73 82.0145 73C86.9676 73 90.9999 77.032 90.9999 81.9857Z" fill="#4285F4"/>
<path d="M53.8767 90.6833C58.9743 90.7407 63.1503 86.68 63.208 81.5824V81.5247C63.064 76.5713 58.9167 72.6544 53.9633 72.7984H53.7617C43.9407 72.0497 36.5393 63.5247 37.2303 53.6753V53.5313C37.9506 44.6607 45.0063 37.6624 53.8767 37C58.8303 37.2017 63.0063 33.3424 63.208 28.3887V28.2447C63.1503 23.1473 58.9743 19.0287 53.8767 19.0858H53.2433C34.1487 19.9793 19.1153 35.6464 19 54.7697V54.9137C19 77.349 38.6706 90.712 53.3294 90.712H53.8767V90.6833Z" fill="#EA4335"/>
</svg>
