<svg width="110" height="110" viewBox="0 0 110 110" fill="none" xmlns="http://www.w3.org/2000/svg">
<rect width="110" height="110" rx="30" fill="white"/>
<path d="M86.7415 69.8892C86.9277 70.3712 86.775 70.7747 86.3618 71.1061C82.4938 74.2101 78.4334 77.0259 74.0138 79.3042L70.3238 81.204C71.0849 81.8099 71.9438 81.9804 72.8559 81.9464C73.8544 81.9091 74.6908 81.4521 75.4631 80.8647C76.3864 80.1627 77.2594 79.3861 78.2295 78.7566C80.5779 77.2328 83.1092 77.3704 85.3305 79.0889C86.2741 79.8189 87.1414 80.6528 88.1205 81.3285C88.5938 81.6551 89.1999 81.8332 89.781 81.9613L89.9095 81.989C90.6146 82.1371 91.0429 82.4909 90.996 83.0979C90.9496 83.7002 90.4709 84.052 89.7481 84.0055C88.2167 83.9068 87.0163 83.1195 85.8913 82.1674C85.1887 81.573 84.5104 80.9393 83.7521 80.4237C82.3461 79.4679 80.8544 79.4402 79.422 80.3578C78.5779 80.8987 77.8104 81.5604 77.0204 82.1825C75.7472 83.1857 74.373 83.9242 72.6964 83.9494C70.8576 83.9772 69.3777 83.1546 68.0221 82.0244C67.5372 81.6201 67.0571 81.2099 66.5629 80.8171C64.7106 79.344 62.8128 79.3448 60.954 80.8182C60.7377 80.9902 60.5228 81.1641 60.3093 81.3397L59.8818 81.6902C59.5268 81.9836 59.1659 82.2698 58.7993 82.5487C56.524 84.2632 53.9182 84.345 51.5605 82.7396C50.7027 82.1556 49.9205 81.4608 49.1024 80.8182C47.2433 79.3589 45.7004 79.3631 43.8081 80.812L43.6534 80.9309L43.1894 81.2884C42.5706 81.765 41.9477 82.2375 41.2938 82.6611C38.83 84.2581 36.3221 84.1914 33.8733 82.6479C32.8599 82.0092 31.9349 81.2315 30.975 80.5084L30.8307 80.4002C30.4476 80.115 30.0691 79.8229 29.6759 79.5523C29.1274 79.1749 28.5368 79.0695 27.9428 79.429C26.8932 80.0643 25.8559 80.7198 24.8164 81.3714C23.834 81.9871 22.8848 82.6639 21.8633 83.2056C21.3098 83.4989 20.6449 83.6354 20.0141 83.7159C19.4269 83.7904 19.023 83.3559 19.0005 82.8075C18.9785 82.2675 19.3324 81.9282 19.8822 81.7723L19.9143 81.7636C20.4987 81.6077 21.1009 81.4098 21.6079 81.0921C23.0387 80.1952 24.4252 79.2279 25.8275 78.2861C25.8675 78.2595 25.8905 78.2088 25.9381 78.1479L25.0676 76.5066C24.7766 75.959 24.4866 75.4104 24.1977 74.8608C23.6914 73.8969 24.0208 73.2504 25.1081 73.173C28.0396 72.9641 30.973 72.7849 33.9056 72.5968L50.7865 71.5168C54.7766 71.2608 58.7664 71.0023 62.7565 70.7458C68.383 70.3839 74.0097 70.0222 79.6366 69.6607C81.1328 69.5648 82.6291 69.4712 84.1253 69.3736L85.6216 69.2747C86.1368 69.2402 86.5503 69.3952 86.7415 69.8892ZM82.4609 71.5936L82.4105 71.4711L26.5523 75.0562L26.6901 75.3131C27.0524 75.9893 27.373 76.6 27.7232 77.1932C27.7555 77.2479 27.8686 77.2591 27.987 77.2633L28.1079 77.2661L28.1442 77.2675L28.1785 77.2695C28.6639 77.3051 29.1944 77.2199 29.6255 77.3895C30.3135 77.6604 30.971 78.0484 31.5774 78.4762C32.663 79.2425 33.6677 80.1251 34.7668 80.8695C36.7204 82.1918 38.56 82.1525 40.4818 80.8118C41.2926 80.246 42.0619 79.6207 42.8654 79.0437C45.3775 77.2395 47.7574 77.2768 50.2097 79.1606C50.9263 79.7113 51.6094 80.3051 52.3247 80.8572C54.1185 82.2417 55.9384 82.2467 57.723 80.8715C58.3173 80.4136 58.8831 79.919 59.4664 79.4466C62.1119 77.3043 64.7933 77.0976 67.3949 79.0084L67.4736 79.0667C68.3061 79.6925 68.9257 79.6611 69.7554 79.2487L70.1593 79.0474C73.8597 77.1977 77.4901 75.2323 80.8417 72.79C81.384 72.3947 81.9214 71.9926 82.4609 71.5936ZM30.5919 24.4078C36.6377 27.1269 42.0669 30.7846 47.0014 35.1809C53.1411 40.6516 57.9803 47.1114 61.5544 54.4995C63.4354 58.3883 64.8985 62.4274 65.5707 66.716L65.6028 66.9262L65.6517 67.2621C65.6525 68.092 64.9857 68.5796 64.2904 68.2995C60.8389 66.9091 57.2749 65.9449 53.592 65.3943C48.7249 64.6664 43.9189 64.8475 39.1872 66.2676C36.0493 67.2097 33.0644 68.4944 30.2907 70.2475C29.7785 70.5714 29.2354 70.5147 28.9013 70.1186C28.5537 69.7073 28.5543 69.2107 28.9556 68.7764C31.8533 65.6399 33.5394 61.8731 34.6574 57.8228C35.7495 53.8653 36.1483 49.8215 35.9036 45.7303C35.7199 42.6554 34.9803 39.6801 34.0122 36.7594C32.7598 32.9808 31.1347 29.3688 29.1753 25.9042C28.8552 25.3378 28.8611 24.8968 29.1848 24.5346C29.5198 24.1594 29.9512 24.1196 30.5919 24.4078ZM49.2304 31.471C49.7909 31.6339 50.546 31.7948 51.2565 32.0702C54.0923 33.1706 56.5355 34.9165 58.8632 36.8239C62.646 39.9237 66.1096 43.3524 69.2073 47.1338C71.363 49.7657 73.1315 52.6608 74.7439 55.649C76.5721 59.0379 78.1468 62.5412 79.483 66.1502L79.5758 66.4022C79.6113 66.4981 79.6475 66.5937 79.6799 66.6904C79.8208 67.1076 79.8033 67.5114 79.4754 67.8302C79.1407 68.1557 78.7391 68.1773 78.3153 68.0118L78.2857 68.0001C77.6782 67.7511 77.0623 67.5215 76.4562 67.27L76.1969 67.1609C74.4908 66.4308 72.7375 66.285 70.9319 66.6938C70.7654 66.7317 70.5966 66.7603 70.4279 66.7861C69.7579 66.889 69.3394 66.6279 69.1566 65.9814C67.398 59.761 64.9185 53.8381 61.7794 48.1869L61.6225 47.9054C59.5986 44.3006 57.2817 40.9106 54.2706 38.0306C52.4929 36.3296 50.622 34.7441 48.5556 33.3975C48.0769 33.0854 47.8975 32.6522 48.055 32.1795C48.2103 31.7146 48.5722 31.5318 49.2304 31.471ZM32.3998 27.5239C32.4054 27.6812 32.4479 27.8043 32.5053 27.9192C33.8193 30.5612 34.962 33.2749 35.8898 36.075C36.7701 38.7313 37.4451 41.4386 37.7686 44.2227C38.1305 47.3388 37.9818 50.447 37.5529 53.5462C36.9884 57.6279 35.8527 61.5318 33.8941 65.1781L33.6663 65.6029L33.3209 66.2486C33.3932 66.2682 33.43 66.2915 33.4536 66.2822C33.66 66.2012 33.8649 66.1165 34.0682 66.0279C38.225 64.2089 42.5566 63.1104 47.1061 62.9974C52.3008 62.8684 57.3323 63.802 62.2458 65.4282L62.5813 65.5392C62.8243 65.6189 63.0836 65.7007 63.4194 65.8092C61.429 57.1238 57.3028 49.6583 51.7414 42.9428C46.3799 36.4689 39.8588 31.4104 32.3998 27.5239ZM57.0834 38.0545L57.1492 38.1288L57.28 38.274C57.3306 38.3306 57.3765 38.3839 57.4195 38.4394C57.7255 38.8331 58.0354 39.2237 58.349 39.6114L58.8606 40.2456C59.629 41.2 60.3878 42.1611 61.0549 43.1811C65.2751 49.6336 68.3784 56.6107 70.6405 63.9635L70.7089 64.1864C70.8264 64.5714 70.9879 64.6796 71.3642 64.623L71.3903 64.6188C73.0826 64.3378 74.7366 64.4839 76.3403 65.0996L76.4233 65.1318C76.5766 65.1924 76.7403 65.2261 77.0373 65.3127C74.8646 59.9085 72.2968 54.878 69.0475 50.1888C66.2378 46.134 58.7141 38.9346 57.0831 38.0542" fill="#242938"/>
</svg>
