<svg width="110" height="110" viewBox="0 0 110 110" fill="none" xmlns="http://www.w3.org/2000/svg">
<rect width="110" height="110" rx="30" fill="white"/>
<path d="M42.889 73.7958C45.1277 76.6715 47.1655 79.7006 48.9874 82.8611C50.5429 85.8335 51.1913 87.8491 52.328 91.4306C53.0252 93.4094 53.6553 94 55.0099 94C56.486 94 57.1558 92.9953 57.6732 91.4415C58.7477 88.0592 59.5908 85.4779 60.921 83.0388C63.5312 78.33 66.7746 74.1456 69.9614 70.124C70.8242 68.9858 76.4022 62.3549 78.9134 57.1228C78.9134 57.1228 81.9999 51.3754 81.9999 43.3487C81.9999 35.8404 78.956 30.633 78.956 30.633L70.1926 32.9983L64.8706 47.1251L63.554 49.0731L63.2907 49.426L62.9405 49.8677L62.3259 50.5733L61.4475 51.4584L56.7084 55.3496L44.86 62.2443L42.889 73.7958Z" fill="#34A853"/>
<path d="M30.6602 56.1566C33.552 62.8134 39.1284 68.6652 42.9012 73.8005L62.9405 49.8769C62.9405 49.8769 60.1173 53.5981 54.9962 53.5981C49.2918 53.5981 44.6834 49.0072 44.6834 43.2184C44.6834 39.2487 47.0531 36.5215 47.0531 36.5215L33.4499 40.1951L30.6602 56.1566Z" fill="#FBBC04"/>
<path d="M63.1644 17.2303C69.8199 19.3929 75.5165 23.9332 78.9622 30.6283L62.9467 49.8631C62.9467 49.8631 65.3163 47.0866 65.3163 43.1416C65.3163 37.218 60.3671 32.7927 55.0204 32.7927C49.9645 32.7927 47.0607 36.5077 47.0607 36.5077V24.3901L63.1644 17.2303Z" fill="#4285F4"/>
<path d="M34.3312 25.7292C38.3063 20.9359 45.301 16 54.9443 16C59.6229 16 63.1477 17.2379 63.1477 17.2379L47.0455 36.5184H35.6369L34.3312 25.7292Z" fill="#1A73E8"/>
<path d="M30.6602 56.1566C30.6602 56.1566 27.9999 50.906 27.9999 43.2996C27.9999 36.1104 30.7729 29.8262 34.3312 25.7292L47.0546 36.5201L30.6602 56.1566Z" fill="#EA4335"/>
</svg>
