<svg width="110" height="110" viewBox="0 0 110 110" fill="none" xmlns="http://www.w3.org/2000/svg">
<rect width="110" height="110" rx="30" fill="#5865F2"/>
<path d="M79.5221 32.4427C74.9635 30.3505 70.1528 28.8583 65.2104 28.0035C65.1655 27.9953 65.1191 28.0015 65.0779 28.021C65.0366 28.0406 65.0025 28.0726 64.9805 28.1125C64.3624 29.2115 63.6776 30.6459 63.1984 31.773C57.7938 30.9637 52.4174 30.9637 47.1239 31.773C46.6444 30.6206 45.9349 29.2115 45.314 28.1125C45.2912 28.0732 45.2569 28.0418 45.2158 28.0223C45.1747 28.0029 45.1287 27.9963 45.0838 28.0035C40.1409 28.8564 35.3299 30.3486 30.772 32.4427C30.7332 32.4596 30.7004 32.4878 30.6778 32.5236C21.5625 46.1417 19.0657 59.4251 20.2905 72.5441C20.298 72.6088 20.3309 72.668 20.3819 72.7086C26.3958 77.1253 32.2215 79.8066 37.939 81.5838C37.9834 81.5969 38.0309 81.5963 38.075 81.5818C38.1191 81.5674 38.1577 81.5399 38.1858 81.5029C39.5382 79.6558 40.7437 77.7085 41.7777 75.6607C41.7919 75.6326 41.8 75.6019 41.8015 75.5704C41.803 75.539 41.7978 75.5076 41.7863 75.4784C41.7748 75.4491 41.7572 75.4226 41.7347 75.4006C41.7121 75.3787 41.6852 75.3617 41.6557 75.3509C39.7432 74.6253 37.9224 73.7411 36.171 72.7367C36.1391 72.7179 36.1123 72.6916 36.093 72.66C36.0736 72.6284 36.0624 72.5925 36.0602 72.5556C36.058 72.5186 36.065 72.4817 36.0804 72.448C36.0959 72.4144 36.1193 72.3851 36.1488 72.3626C36.5183 72.0865 36.8815 71.8019 37.2379 71.5091C37.2692 71.4833 37.307 71.4668 37.3471 71.4613C37.3872 71.4559 37.4281 71.4617 37.4651 71.4781C48.9724 76.7319 61.43 76.7319 72.8013 71.4781C72.8384 71.4606 72.8798 71.454 72.9205 71.459C72.9612 71.464 72.9997 71.4804 73.0316 71.5062C73.3885 71.8006 73.7526 72.0862 74.1235 72.3626C74.1531 72.3849 74.1768 72.414 74.1925 72.4475C74.2082 72.481 74.2154 72.5179 74.2135 72.5548C74.2116 72.5918 74.2006 72.6277 74.1815 72.6594C74.1625 72.6911 74.1359 72.7177 74.1042 72.7367C72.3517 73.76 70.516 74.6336 68.6167 75.3481C68.5872 75.3595 68.5605 75.3769 68.5383 75.3992C68.516 75.4216 68.4987 75.4484 68.4875 75.4778C68.4762 75.5073 68.4713 75.5388 68.473 75.5703C68.4748 75.6018 68.4831 75.6326 68.4975 75.6607C69.5493 77.6923 70.7487 79.644 72.0862 81.5001C72.1136 81.5379 72.1521 81.5663 72.1963 81.5813C72.2405 81.5963 72.2883 81.5972 72.333 81.5838C78.0783 79.8066 83.904 77.1253 89.9182 72.7086C89.9439 72.6895 89.9653 72.6653 89.9811 72.6374C89.9968 72.6096 90.0065 72.5787 90.0096 72.5469C91.4756 57.3801 87.5539 44.2053 79.6135 32.5264C79.5942 32.4883 79.5617 32.4586 79.5221 32.4427ZM43.4961 64.5562C40.0315 64.5562 37.1768 61.3756 37.1768 57.4694C37.1768 53.5632 39.9763 50.3826 43.4961 50.3826C47.0434 50.3826 49.8703 53.5913 49.8147 57.4694C49.8147 61.3756 47.0156 64.5562 43.4961 64.5562ZM66.8596 64.5562C63.3949 64.5562 60.5406 61.3756 60.5406 57.4694C60.5406 53.5632 63.3397 50.3826 66.8596 50.3826C70.4068 50.3826 73.2337 53.5913 73.1785 57.4694C73.1785 61.3756 70.4068 64.5562 66.8596 64.5562Z" fill="white"/>
</svg>
