<svg width="110" height="110" viewBox="0 0 110 110" fill="none" xmlns="http://www.w3.org/2000/svg">
<rect width="110" height="110" rx="30" fill="#242938"/>
<path d="M77.9463 51.3516V27.1532L57.0127 15.0538V24.3566L65.2253 29.0889C65.5474 29.2501 65.5474 29.7342 65.2253 29.8954L55.4561 35.5418C55.1878 35.7033 54.8122 35.7033 54.5436 35.5418L44.7747 29.8418C44.4529 29.6806 44.4529 29.1965 44.7747 29.035L52.9873 24.3031V15L32.0537 27.0994V51.3516L40.1051 46.727V37.2089C40.1051 36.8863 40.4807 36.6174 40.8027 36.8324L50.5717 42.4789C50.8403 42.6401 51.0549 42.9627 51.0549 43.2854V54.578C51.0549 54.9006 50.6791 55.1695 50.357 54.9544L42.1447 50.2222L34.0933 54.8468L55.0269 66.9461L75.9604 54.8468L67.909 50.2222L59.6967 54.9544C59.4284 55.1156 58.9989 54.9006 58.9989 54.578V43.2854C58.9989 42.9627 59.1598 42.6401 59.4818 42.4789L69.251 36.8324C69.5193 36.671 69.9486 36.8863 69.9486 37.2089V46.727L77.9463 51.3516Z" fill="#CCCCCC"/>
<path d="M54.9733 67L75.9068 54.9007L67.8554 50.276L59.6431 55.0083C59.3748 55.1698 58.9452 54.9545 58.9452 54.6318V43.3392C58.9452 43.0166 59.1064 42.6939 59.4285 42.5327L69.1974 36.8863C69.4657 36.7251 69.8953 36.9401 69.8953 37.2628V46.7809L77.9464 51.4055L77.9463 27.1532L54.9733 40.4353V67Z" fill="#A6A6A6"/>
<path d="M56.9593 15V24.3028L65.1716 29.035C65.4936 29.1962 65.4936 29.6804 65.1716 29.8418L55.4027 35.488C55.1343 35.6494 54.7585 35.6494 54.4902 35.488L44.7747 29.8418C44.4529 29.6806 44.4529 29.1965 44.7747 29.035L52.9873 24.3031V15L32.0537 27.0994L55.0269 40.3814L78 27.0994L56.9593 15Z" fill="white"/>
<path d="M50.2496 54.9545L42.0373 50.2225L33.9861 54.8471L54.9194 66.9462V40.3818L32 27.153V51.4055L40.0514 46.7809V37.2628C40.0514 36.9401 40.4272 36.6713 40.7493 36.8863L50.5182 42.5327C50.7865 42.6939 51.0012 43.0166 51.0012 43.3392V54.6318C50.9474 54.9007 50.5716 55.1159 50.2496 54.9545Z" fill="#CCCCCC"/>
<path d="M38.8658 89.658C38.6898 89.8047 38.3598 90.0027 37.8758 90.252C37.4065 90.5013 36.8272 90.7213 36.1378 90.912C35.4485 91.1027 34.6858 91.1907 33.8498 91.176C32.5738 91.1467 31.4298 90.9193 30.4178 90.494C29.4205 90.054 28.5698 89.46 27.8658 88.712C27.1765 87.964 26.6485 87.106 26.2818 86.138C25.9152 85.17 25.7318 84.136 25.7318 83.036C25.7318 81.804 25.9152 80.6747 26.2818 79.648C26.6632 78.6213 27.1985 77.734 27.8878 76.986C28.5918 76.238 29.4278 75.6587 30.3958 75.248C31.3638 74.8373 32.4345 74.632 33.6078 74.632C34.6932 74.632 35.6538 74.7787 36.4898 75.072C37.3258 75.3653 38.0078 75.6807 38.5358 76.018L37.2818 79.032C36.9152 78.7533 36.4238 78.4673 35.8078 78.174C35.2065 77.866 34.5098 77.712 33.7178 77.712C33.1018 77.712 32.5078 77.844 31.9358 78.108C31.3785 78.3573 30.8798 78.7167 30.4398 79.186C30.0145 79.6553 29.6772 80.2053 29.4278 80.836C29.1785 81.452 29.0538 82.1267 29.0538 82.86C29.0538 83.6373 29.1638 84.3487 29.3838 84.994C29.6185 85.6393 29.9485 86.1967 30.3738 86.666C30.7992 87.1207 31.3052 87.4727 31.8918 87.722C32.4932 87.9713 33.1678 88.096 33.9158 88.096C34.7812 88.096 35.5218 87.9567 36.1378 87.678C36.7538 87.3993 37.2232 87.106 37.5458 86.798L38.8658 89.658ZM41.5557 73.642H44.6357V91H41.5557V73.642ZM47.0596 86.072C47.0596 85.0893 47.287 84.2093 47.7416 83.432C48.211 82.6547 48.8636 82.046 49.6996 81.606C50.5356 81.1513 51.4963 80.924 52.5816 80.924C53.6816 80.924 54.635 81.1513 55.4416 81.606C56.2483 82.046 56.8643 82.6547 57.2896 83.432C57.7296 84.2093 57.9496 85.0893 57.9496 86.072C57.9496 87.0547 57.7296 87.942 57.2896 88.734C56.8643 89.5113 56.2483 90.1273 55.4416 90.582C54.635 91.0367 53.667 91.264 52.5376 91.264C51.4816 91.264 50.5356 91.0587 49.6996 90.648C48.8783 90.2373 48.233 89.6433 47.7636 88.866C47.2943 88.0887 47.0596 87.1573 47.0596 86.072ZM50.1616 86.094C50.1616 86.5927 50.2643 87.0473 50.4696 87.458C50.675 87.854 50.9536 88.1693 51.3056 88.404C51.6576 88.6387 52.0536 88.756 52.4936 88.756C52.9776 88.756 53.3956 88.6387 53.7476 88.404C54.0996 88.1693 54.371 87.854 54.5616 87.458C54.7523 87.0473 54.8476 86.5927 54.8476 86.094C54.8476 85.5807 54.7523 85.126 54.5616 84.73C54.371 84.334 54.0996 84.0187 53.7476 83.784C53.3956 83.5493 52.9776 83.432 52.4936 83.432C52.0536 83.432 51.6576 83.5493 51.3056 83.784C50.9536 84.0187 50.675 84.334 50.4696 84.73C50.2643 85.126 50.1616 85.5807 50.1616 86.094ZM63.478 91.462C62.6127 91.462 61.8867 91.198 61.3 90.67C60.7133 90.1273 60.4053 89.4307 60.376 88.58V81.386H63.456V87.436C63.4853 87.8613 63.5953 88.206 63.786 88.47C63.9767 88.7193 64.2993 88.844 64.754 88.844C65.2087 88.844 65.5973 88.69 65.92 88.382C66.2573 88.074 66.514 87.656 66.69 87.128C66.8807 86.5853 66.976 85.9767 66.976 85.302V81.386H70.056V91H67.262L67.02 89.24L67.064 89.438C66.844 89.834 66.5653 90.186 66.228 90.494C65.8907 90.802 65.4873 91.0367 65.018 91.198C64.5633 91.374 64.05 91.462 63.478 91.462ZM77.1396 91.264C76.245 91.264 75.4456 91.0587 74.7416 90.648C74.0376 90.2227 73.4803 89.614 73.0696 88.822C72.6736 88.03 72.4756 87.0913 72.4756 86.006C72.4756 84.9207 72.6956 83.9967 73.1356 83.234C73.5756 82.4713 74.177 81.892 74.9396 81.496C75.7023 81.1 76.5676 80.902 77.5356 80.902C78.1516 80.902 78.7383 80.9973 79.2956 81.188C79.8676 81.3787 80.3443 81.672 80.7256 82.068V83.036V73.642H83.7836V91H80.7036V89.13L80.9456 89.79C80.447 90.2007 79.8896 90.5527 79.2736 90.846C78.6576 91.1247 77.9463 91.264 77.1396 91.264ZM78.1516 88.668C78.5623 88.668 78.9216 88.6167 79.2296 88.514C79.5523 88.3967 79.831 88.2353 80.0656 88.03C80.315 87.81 80.5276 87.5387 80.7036 87.216V84.862C80.5863 84.5393 80.403 84.268 80.1536 84.048C79.919 83.8133 79.6256 83.6373 79.2736 83.52C78.9363 83.388 78.5623 83.322 78.1516 83.322C77.697 83.322 77.2716 83.4393 76.8756 83.674C76.4943 83.894 76.1863 84.202 75.9516 84.598C75.717 84.994 75.5996 85.4487 75.5996 85.962C75.5996 86.4753 75.717 86.9373 75.9516 87.348C76.1863 87.7587 76.4943 88.0813 76.8756 88.316C77.2716 88.5507 77.697 88.668 78.1516 88.668Z" fill="white"/>
</svg>
