<svg width="110" height="110" viewBox="0 0 110 110" fill="none" xmlns="http://www.w3.org/2000/svg">
<rect width="110" height="110" rx="30" fill="white"/>
<path fill-rule="evenodd" clip-rule="evenodd" d="M55 17C33.4525 17 16 34.4351 16 55.9612C16 73.2015 27.1637 87.7632 42.6662 92.9256C44.6162 93.2665 45.3475 92.0976 45.3475 91.0749C45.3475 90.1496 45.2988 87.0814 45.2988 83.8184C35.5 85.6204 32.965 81.432 32.185 79.2405C31.7463 78.1203 29.845 74.6625 28.1875 73.7372C26.8225 73.0067 24.8725 71.2047 28.1387 71.156C31.21 71.1073 33.4037 73.9807 34.135 75.1495C37.645 81.0424 43.2512 79.3866 45.4937 78.3638C45.835 75.8314 46.8588 74.1268 47.98 73.1528C39.3025 72.1787 30.235 68.8183 30.235 53.9157C30.235 49.6787 31.7463 46.1722 34.2325 43.4449C33.8425 42.4709 32.4775 38.4773 34.6225 33.1202C34.6225 33.1202 37.8887 32.0975 45.3475 37.1137C48.4675 36.2371 51.7825 35.7988 55.0975 35.7988C58.4125 35.7988 61.7275 36.2371 64.8475 37.1137C72.3062 32.0488 75.5725 33.1202 75.5725 33.1202C77.7175 38.4773 76.3525 42.4709 75.9625 43.4449C78.4488 46.1722 79.96 49.63 79.96 53.9157C79.96 68.867 70.8438 72.1787 62.1662 73.1528C63.58 74.3703 64.7988 76.708 64.7988 80.3606C64.7988 85.5716 64.75 89.76 64.75 91.0749C64.75 92.0976 65.4812 93.3152 67.4312 92.9256C75.1733 90.3143 81.9008 85.3433 86.6669 78.7124C91.433 72.0815 93.9977 64.1245 94 55.9612C94 34.4351 76.5475 17 55 17Z" fill="black"/>
</svg>
