<svg width="110" height="110" viewBox="0 0 110 110" fill="none" xmlns="http://www.w3.org/2000/svg">
<rect width="110" height="110" rx="30" fill="#242938"/>
<path fill-rule="evenodd" clip-rule="evenodd" d="M45.7085 65.7758L83.8076 27.859V27.8946L94.812 16.9909C94.6153 17.269 94.4161 17.5396 94.2192 17.8103C85.8573 29.2198 81.7746 34.7988 85.0507 48.7589L85.0316 48.7377C87.2902 58.2399 84.8732 68.7779 77.0706 76.5084C67.2325 86.2626 51.4903 88.4334 38.5273 79.653L47.5663 75.5085C55.8391 78.7268 64.8924 77.3137 71.3967 70.868C77.9033 64.4222 79.3649 55.036 76.0937 47.2225C75.4721 45.7427 73.6095 45.3698 72.3063 46.3245L45.7085 65.7758ZM40.2194 70.5021L40.2124 70.5092L14.812 92.9909C16.4224 90.7941 18.4217 88.716 20.4163 86.6401C26.0421 80.7835 31.6247 74.9789 28.2189 66.7757C23.6588 55.7985 26.3133 42.9354 34.7592 34.5683C43.5387 25.8783 56.4679 23.6861 67.2661 28.0892C69.6567 28.9681 71.7398 30.2197 73.3624 31.3835L64.3453 35.5088C55.9496 32.0199 46.3301 34.3926 40.4595 40.209C32.5198 48.0678 30.9143 61.6956 40.2194 70.5021Z" fill="white"/>
</svg>
