<svg width="110" height="110" viewBox="0 0 110 110" fill="none" xmlns="http://www.w3.org/2000/svg">
<rect width="110" height="110" rx="30" fill="white"/>
<path fill-rule="evenodd" clip-rule="evenodd" d="M83.5864 68.1122C84.692 68.1093 85.7875 68.3249 86.8092 68.7454C87.8315 69.1664 88.7601 69.7846 89.5418 70.5647C90.3236 71.3444 90.9433 72.271 91.3652 73.2903C91.7871 74.3097 92.0029 75.4026 92 76.5056C92 79.9002 89.9502 82.9607 86.8063 84.26C83.662 85.5592 80.0435 84.841 77.6367 82.4407C75.2305 80.0403 74.5109 76.4302 75.8129 73.2937C76.0976 72.6078 76.4666 71.9747 76.9054 71.4033C75.2863 71.0142 73.6564 70.672 72.0178 70.3767C70.1799 70.0461 68.3318 69.7749 66.4765 69.5637C64.6211 69.3525 62.7595 69.2012 60.8944 69.1108C59.0293 69.0199 57.1614 68.99 55.2944 69.0199C53.377 68.9875 51.4591 69.0165 49.5436 69.106C47.6281 69.1959 45.7155 69.3462 43.8097 69.5574C41.9039 69.7686 40.0049 70.0403 38.1161 70.3723C36.4237 70.6696 34.74 71.0152 33.0675 71.4082C33.5306 72.0085 33.9117 72.6692 34.1998 73.373C34.6197 74.3996 34.8331 75.4983 34.8278 76.6066C34.8278 78.8329 33.9413 80.9674 32.3633 82.5417C30.7854 84.116 28.6454 85 26.4142 85C24.1825 85 22.0425 84.116 20.4645 82.5417C18.8866 80.9674 18.0001 78.8329 18.0001 76.6066C17.9948 75.4983 18.2081 74.3996 18.6281 73.373C19.048 72.3468 19.6658 71.413 20.4471 70.6247C21.2278 69.8358 22.1565 69.2084 23.1802 68.7773C24.2043 68.3461 25.3027 68.1204 26.4142 68.1122C27.5252 68.1204 28.6235 68.3461 29.6477 68.7773L48.1033 35.6552L48.2609 35.4193C46.5011 33.0722 46.0802 29.9429 47.2266 27.1816C48.5291 24.0451 51.5973 22 55 22C56.1057 21.9971 57.2012 22.2127 58.2234 22.6332C59.2451 23.0542 60.1738 23.6724 60.9555 24.4526C61.7377 25.2322 62.357 26.1588 62.7789 27.1782C63.2007 28.1976 63.4165 29.2904 63.4141 30.3934C63.4141 32.2248 62.8172 33.9591 61.7741 35.3719L61.8934 35.5503L80.3461 68.7594C81.3533 68.3399 82.4511 68.1122 83.5864 68.1122ZM88.6525 76.6066C88.6651 75.2793 88.1491 74.0009 87.2171 73.0535C86.2855 72.1056 85.0145 71.5657 83.6838 71.5532C82.3532 71.5401 81.072 72.0549 80.122 72.9844C79.1715 73.9139 78.6308 75.1822 78.6178 76.5095C78.6047 77.8367 79.1211 79.1152 80.0527 80.0631C80.9847 81.0104 82.2557 81.5503 83.5864 81.5634C84.917 81.5759 86.1982 81.0612 87.1482 80.1317C88.0987 79.2022 88.6394 77.9339 88.6525 76.6066ZM31.4803 76.6066H31.4798C31.4929 75.2793 30.9764 74.0009 30.0449 73.0535C29.1128 72.1056 27.8418 71.5657 26.5112 71.5532C25.1805 71.5401 23.8993 72.0549 22.9493 72.9844C21.9993 73.9139 21.4582 75.1822 21.4451 76.5095C21.4451 77.1649 21.5726 77.8145 21.8214 78.4211C22.0697 79.0282 22.4343 79.5812 22.8945 80.049C23.3547 80.5174 23.9017 80.8915 24.505 81.1511C25.1087 81.4106 25.7571 81.5508 26.4142 81.5634C27.0713 81.5634 27.722 81.4363 28.3306 81.1883C28.9387 80.9403 29.493 80.5769 29.9624 80.1177C30.4314 79.6585 30.8067 79.1128 31.0671 78.511C31.327 77.9088 31.4677 77.262 31.4803 76.6066ZM58.22 38.1478C55.8395 39.1314 53.1864 38.9589 50.994 37.7747L50.945 37.8762L34.4214 67.5056C36.1347 67.1363 37.8576 66.8168 39.5893 66.5476C41.3205 66.2779 43.0595 66.0584 44.8038 65.8898C46.5481 65.7206 48.2968 65.6022 50.0479 65.5345C51.7995 65.4668 53.552 65.4494 55.3041 65.4833C57.0052 65.4746 58.7064 65.5108 60.4061 65.591C62.1053 65.6713 63.8021 65.796 65.495 65.9647C67.1879 66.1338 68.8759 66.3465 70.5577 66.6037C72.2394 66.8608 73.9139 67.1614 75.5796 67.5056L59.0512 37.7713L59.0429 37.7544C58.7782 37.8994 58.5037 38.0308 58.22 38.1478ZM60.0666 30.3934C60.0657 29.7428 59.9367 29.0985 59.6864 28.4972C59.4367 27.8964 59.0706 27.3502 58.6094 26.8901C58.1482 26.4299 57.6007 26.065 56.998 25.8156C56.3957 25.5662 55.7497 25.4376 55.0975 25.4367C53.0879 25.4367 51.2762 26.6445 50.5071 28.4967C49.738 30.349 50.1628 32.4805 51.5842 33.8982C53.005 35.3159 55.1421 35.7402 56.9989 34.9727C58.8557 34.2056 60.0666 32.3984 60.0666 30.3934Z" fill="#00ADE1"/>
</svg>
