<svg width="110" height="110" viewBox="0 0 110 110" fill="none" xmlns="http://www.w3.org/2000/svg">
<rect width="110" height="110" rx="30" fill="white"/>
<path d="M54.995 91L84.1948 74.2066L73.0027 67.7597L61.5605 74.3432C61.463 74.3967 61.3534 74.4243 61.2421 74.4234C61.1309 74.4225 61.0217 74.3932 60.9251 74.3382C60.8288 74.2819 60.7487 74.2019 60.6925 74.1058C60.6364 74.0098 60.606 73.9009 60.6043 73.7897V58.1545C60.6043 57.6938 60.8438 57.277 61.2442 57.0475L74.8405 49.2271C74.9374 49.1721 75.0471 49.1436 75.1586 49.1445C75.2701 49.1454 75.3793 49.1756 75.4753 49.2321C75.6741 49.3418 75.7983 49.5494 75.8006 49.7755V62.9369L87 69.3797V35.7934L54.9945 54.1934L54.995 91Z" fill="black"/>
<path d="M48.4469 74.3506L36.999 67.7592L25.7984 74.2054L54.995 91L54.9945 54.1934L23 35.7929V69.3775L34.1966 62.9369V49.7766C34.2017 49.5511 34.3236 49.3435 34.5196 49.2333C34.6162 49.1767 34.726 49.1465 34.838 49.1456C34.9501 49.1447 35.0604 49.1732 35.1578 49.2282L48.7609 57.0475C48.9555 57.1603 49.117 57.3221 49.2293 57.5165C49.3416 57.711 49.4007 57.9313 49.4008 58.1556V73.7931C49.3992 73.9045 49.3691 74.0136 49.3132 74.1101C49.2574 74.2066 49.1777 74.2873 49.0817 74.3444C48.9856 74.4006 48.8765 74.4308 48.7652 74.432C48.6538 74.4331 48.5441 74.4047 48.4469 74.3506Z" fill="#4D4D4D"/>
<path d="M57.8006 19V31.8813L69.2434 38.4608C69.44 38.575 69.5569 38.7848 69.5569 39.0143C69.5569 39.241 69.4371 39.4486 69.2434 39.5628L55.642 47.3883C55.4466 47.4987 55.2257 47.5568 55.001 47.5568C54.7763 47.5568 54.5555 47.4987 54.36 47.3883L40.7626 39.5628C40.666 39.5072 40.5859 39.4272 40.5304 39.3309C40.4748 39.2346 40.4458 39.1254 40.4463 39.0143C40.4455 38.9025 40.4743 38.7924 40.5298 38.6953C40.5854 38.5981 40.6657 38.5172 40.7626 38.4608L52.2032 31.8813V19L23 35.7929L54.9945 54.1934L86.9975 35.794L57.8006 19Z" fill="#808080"/>
</svg>
