<svg width="110" height="110" viewBox="0 0 110 110" fill="none" xmlns="http://www.w3.org/2000/svg">
<rect width="110" height="110" rx="30" fill="#3659FF"/>
<path d="M68.24 22H68.7378C70.5297 22 72.2221 22.3753 73.7552 23.1062C74.7905 23.6791 75.6666 24.3902 76.4032 25.2396C77.6178 26.7211 78.4938 28.4792 78.9916 30.5139C79.4495 32.2917 79.6685 34.2671 79.6884 36.3412C79.7083 37.724 79.6884 39.087 79.6287 40.4105C79.6287 40.45 79.7083 40.4105 79.8875 40.3315C80.9229 39.8179 81.9184 39.245 82.8741 38.6129C83.79 38.2178 84.666 38.2178 85.4027 38.5734C85.8009 38.7314 86 39.166 86 39.9562C86 40.9439 85.8208 41.813 85.4823 42.6229C85.0045 43.8081 84.228 44.8946 83.1329 45.8428C82.1374 46.712 80.9428 47.4033 79.5889 47.9169C79.4296 47.9762 79.3301 48.075 79.3301 48.1935L78.8522 53.0529C78.454 56.6876 77.8567 60.1643 77.0005 63.5224C76.0648 66.683 74.91 69.7053 73.5362 72.6091C72.2818 75.2956 70.6492 77.7451 68.5984 79.918C66.8861 81.6959 65.0145 83.1774 62.9439 84.3429C60.4352 85.7651 57.7274 86.7528 54.8404 87.3059C51.9733 87.8985 49.0067 88.0961 45.9803 87.9578C42.9539 87.8393 40.1466 87.1084 37.5383 85.7849C36.1446 84.9947 34.9102 84.0466 33.8948 82.9206C32.3218 81.0045 31.3462 78.7723 30.9281 76.2833C30.729 75.1771 30.6096 74.1104 30.5897 73.1227C30.4901 72.135 30.5498 71.0683 30.7888 69.9621C31.3462 67.0781 32.0431 64.1348 32.8594 61.1124L35.9057 49.0627C36.3636 47.1465 36.7618 45.3885 37.0605 43.7291C37.5782 41.1611 37.7374 38.7117 37.5184 36.4202C37.4388 34.9782 37.0207 33.6942 36.2641 32.588C35.6867 31.9559 35.0097 31.6003 34.2332 31.6003C33.2975 31.5608 32.4811 31.7979 31.7444 32.351L28.0013 35.0177C27.2845 35.5313 26.528 35.8079 25.7315 35.8671C25.1541 35.9066 24.736 35.7881 24.4573 35.5116C24.1984 35.2548 24.0591 34.8399 24.0193 34.2671C23.8799 31.9361 24.4971 29.8818 25.8709 28.1039C26.6673 27.1162 27.6628 26.2273 28.8774 25.4569C30.51 24.3507 32.3019 23.5605 34.2731 23.0865C35.9256 22.6914 37.7175 22.5729 39.6488 22.6519C41.5801 22.7902 43.2924 23.363 44.8255 24.3902C45.9007 25.1804 46.8165 26.168 47.5134 27.3138C49.2456 30.0003 50.0221 33.0226 49.8628 36.3412C49.8031 39.5413 49.3651 42.6624 48.5686 45.7835L45.5423 58.6235C44.9649 61.1322 44.5069 63.5224 44.1486 65.7743C43.8698 67.9472 43.83 70.1202 43.9893 72.3523C44.1486 73.7351 44.8056 74.8611 45.9405 75.75C46.5776 76.2241 47.3342 76.5401 48.1704 76.7377C48.927 76.8957 49.7633 76.9945 50.719 77.0142C53.7055 76.9747 56.3934 76.1055 58.8224 74.4067C60.0171 73.5771 61.132 72.6289 62.1674 71.5622C63.7602 69.8634 65.0544 68.0065 66.1494 65.9521C67.8617 62.594 69.136 59.0383 69.9324 55.3641C70.3704 53.5072 70.7487 51.4529 71.127 49.1812C68.2201 49.0429 65.5521 48.312 63.0633 46.9885C62.028 46.3761 61.0723 45.6057 60.1763 44.6576C59.1808 43.5711 58.3844 42.4056 57.8269 41.1414C56.9509 39.1265 56.473 36.9931 56.4332 34.6819C56.3337 32.9436 56.5328 31.2843 57.0305 29.704C57.7274 27.7088 58.922 26.01 60.6144 24.568C61.8289 23.5803 63.2425 22.8889 64.8354 22.4741C65.9304 22.1975 67.0653 22.0395 68.2201 22.0198L68.24 22ZM69.3152 29.6052C68.7975 29.6052 68.3993 29.8027 68.1405 30.2373C68.0409 30.3953 67.9812 30.5534 67.9015 30.7312L67.7423 31.2448L67.6626 31.7979V32.3905C67.6626 32.8251 67.6825 33.2201 67.7223 33.5757C67.7622 33.9313 67.8219 34.3263 67.9214 34.6622L68.0409 35.2548C68.1006 35.4523 68.1405 35.6498 68.24 35.8474C68.2798 36.0449 68.3595 36.2227 68.4391 36.4005L68.678 36.9338L68.9767 37.4474C69.0763 37.6252 69.1957 37.7635 69.3152 37.9215L69.7134 38.3759L70.1514 38.8105C70.4301 39.087 70.7487 39.324 71.0275 39.5413C71.3062 39.7586 71.6248 39.9364 71.9433 40.1142C72.023 38.4549 72.0827 36.7956 72.1026 35.1363V34.1486C72.1026 33.8325 72.0429 33.5164 72.0031 33.2201L71.8637 32.3312L71.6646 31.4818C71.6248 31.3238 71.565 31.1657 71.4655 31.0077L71.1469 30.4744C70.8682 30.0595 70.4899 29.783 70.0519 29.6447L69.574 29.5657H69.3351L69.3152 29.6052Z" fill="white"/>
</svg>
